<svg xmlns="http://www.w3.org/2000/svg" width="125" height="125" fill="none" viewBox="0 0 125 125"><mask id="mask0" width="51" height="97" x="37" y="4" mask-type="alpha" maskUnits="userSpaceOnUse"><path fill="url(#paint0_linear)" d="M37.7387 70.2889C35.4861 45.601 44.5473 21.2229 62.3782 4V4V4C80.209 21.2229 89.2703 45.601 87.0176 70.2889L84.235 100.785H40.5213L37.7387 70.2889Z"/></mask><g mask="url(#mask0)"><path fill="url(#paint1_linear)" d="M37.7387 70.2889C35.4861 45.601 44.5473 21.2229 62.3782 4V4V4C80.209 21.2229 89.2703 45.601 87.0176 70.2889L84.235 100.785H40.5213L37.7387 70.2889Z"/><path stroke="#E8FF5E" stroke-dasharray=".07 3.56" stroke-linecap="round" stroke-linejoin="round" stroke-width="1.424" d="M46.3516 93.0947H83.4373"/><path fill="url(#paint2_linear)" d="M30.4904 68.1246C28.3626 44.8051 36.9217 21.7782 53.7642 5.5099V5.5099C54.6361 4.66767 56.0186 4.66767 56.8906 5.5099V5.5099C73.7331 21.7782 82.2921 44.8051 80.1643 68.1246L77.1842 100.785H33.4705L30.4904 68.1246Z" opacity=".1"/><rect width="61.532" height="16.024" x="32.895" y="95.658" fill="url(#paint3_linear)" opacity=".65" rx="2.967"/><path fill="url(#paint4_linear)" fill-rule="evenodd" d="M62.3807 4C44.5499 21.2229 35.4886 45.601 37.7413 70.2889L40.5239 100.785H52.7044L49.7242 68.1246C47.8022 47.0602 54.6001 26.2345 68.3464 10.4133C66.4838 8.18264 64.4939 6.04107 62.3807 4Z" clip-rule="evenodd" opacity=".3"/><circle cx="62.057" cy="49.241" r="18.651" fill="#A2E9FF"/><circle cx="62.262" cy="49.118" r="16.243" stroke="#033136" stroke-dasharray=".07 3.56" stroke-linecap="round" stroke-linejoin="round" stroke-width=".902" opacity=".2"/><circle cx="62.054" cy="49.242" r="13.781" fill="url(#paint5_linear)"/></g><path fill="url(#paint6_linear)" d="M46.2744 93.3563V67.7178C26.7891 67.7178 14.867 96.5611 26.725 120.277L46.2744 93.3563Z"/><path fill="url(#paint7_linear)" d="M79.046 93.3563V67.7178C98.5312 67.7178 110.453 96.5611 98.5953 120.277L79.046 93.3563Z"/><path fill="#D5F5FF" d="M92.6236 112.053L98.5963 120.278C110.173 97.1234 99.0834 69.0815 80.418 67.7666C92.451 74.6559 98.7216 94.0309 92.6236 112.053Z" opacity=".6"/><path fill="url(#paint8_linear)" d="M53.0789 105.064C50.7704 105.064 49.3463 107.585 50.5375 109.562L54.5731 116.262C55.1098 117.153 56.0742 117.698 57.1144 117.698H68.3198C69.3601 117.698 70.3244 117.153 70.8612 116.262L74.8968 109.562C76.0879 107.585 74.6638 105.064 72.3554 105.064H53.0789Z"/><rect width="32.689" height="5.128" x="46.355" y="105.967" fill="#161616" opacity=".3" rx="2.564"/><rect width="32.689" height="5.128" x="46.355" y="103.99" fill="url(#paint9_linear)" rx="2.564"/><path stroke="#fff" stroke-dasharray="1.28 3.2" stroke-width="2.564" d="M48.918 106.554H76.1589"/><rect width="19.87" height="5.128" x="46.355" y="103.99" fill="url(#paint10_linear)" opacity=".5" rx="2.564"/><defs><linearGradient id="paint0_linear" x1="-7.807" x2="111.412" y1="50.47" y2="78.031" gradientUnits="userSpaceOnUse"><stop stop-color="#066A81"/><stop offset="1" stop-color="#12E2EF"/></linearGradient><linearGradient id="paint1_linear" x1="-7.807" x2="90.581" y1="50.47" y2="73.224" gradientUnits="userSpaceOnUse"><stop stop-color="#066A81"/><stop offset="1" stop-color="#47F4FF"/></linearGradient><linearGradient id="paint2_linear" x1="41.226" x2="53.989" y1="10.337" y2="100.19" gradientUnits="userSpaceOnUse"><stop stop-color="#066D77"/><stop offset="1" stop-color="#021215"/></linearGradient><linearGradient id="paint3_linear" x1="48.278" x2="48.605" y1="96.707" y2="111.877" gradientUnits="userSpaceOnUse"><stop stop-color="#066D77"/><stop offset="1" stop-color="#021215"/></linearGradient><linearGradient id="paint4_linear" x1="45.138" x2="67.381" y1="10.337" y2="96.243" gradientUnits="userSpaceOnUse"><stop stop-color="#066D77"/><stop offset="1" stop-color="#021215"/></linearGradient><linearGradient id="paint5_linear" x1="55.164" x2="57.31" y1="37.266" y2="63.191" gradientUnits="userSpaceOnUse"><stop stop-color="#066D77"/><stop offset="1" stop-color="#021215"/></linearGradient><linearGradient id="paint6_linear" x1="41.229" x2="34.137" y1="73.486" y2="120.277" gradientUnits="userSpaceOnUse"><stop stop-color="#48CDF7"/><stop offset="1" stop-color="#52C1E3"/></linearGradient><linearGradient id="paint7_linear" x1="79.046" x2="100.839" y1="82.139" y2="93.997" gradientUnits="userSpaceOnUse"><stop stop-color="#30EFFD"/><stop offset="1" stop-color="#A2E9FF"/></linearGradient><linearGradient id="paint8_linear" x1="55.273" x2="55.692" y1="105.892" y2="117.842" gradientUnits="userSpaceOnUse"><stop stop-color="#53D9E7"/><stop offset="1" stop-color="#33DAFF"/></linearGradient><linearGradient id="paint9_linear" x1="85.195" x2="81.964" y1="108.214" y2="119.972" gradientUnits="userSpaceOnUse"><stop stop-color="#069886"/><stop offset="1" stop-color="#12E2EF"/></linearGradient><linearGradient id="paint10_linear" x1="51.323" x2="51.427" y1="104.326" y2="109.18" gradientUnits="userSpaceOnUse"><stop stop-color="#066D77"/><stop offset="1" stop-color="#021215"/></linearGradient></defs></svg>