<svg xmlns="http://www.w3.org/2000/svg" width="1920" height="982" fill="none" viewBox="0 0 1920 982"><rect width="1921" height="385" x="4" y="561" fill="url(#paint0_linear)"/><path stroke="url(#paint1_linear)" stroke-width="1.521" d="M1777 589V622C1777 641.33 1761.33 657 1742 657H679.5"/><path fill="url(#paint2_linear)" fill-rule="evenodd" d="M1777.57 574.445H1794.95L1794.95 333.539H1821.01L1821.01 574.445H1838.38L1838.39 210.262H1821.01V237.657H1794.95V70.1987H1777.57L1777.57 274.167L1663.86 274.172L1663.98 281.023L1777.57 281.015L1777.57 461.185H1689.95V469.791H1777.57L1777.57 574.445ZM1821.01 244.506H1794.95V326.691H1821.01V244.506Z" clip-rule="evenodd"/><path fill="url(#paint3_linear)" d="M1499.23 574.199H1849.76L1869 592.199H1477L1499.23 574.199Z"/><path fill="url(#paint4_linear)" d="M1703.23 574.199H1849.76L1869 592.199H1681L1703.23 574.199Z" opacity=".8"/><mask id="mask0" width="123" height="501" x="1589" y="2" mask-type="alpha" maskUnits="userSpaceOnUse"><path fill="url(#paint5_linear)" d="M1589.56 502.681H1711.34C1711.34 502.681 1711.34 331.454 1711.34 240.699C1711.34 172.997 1695.98 51.2075 1653.86 3.63195C1652.03 1.56423 1648.87 1.5642 1647.04 3.63447C1605.39 50.8197 1589.56 173.398 1589.56 240.699C1589.56 333.199 1589.56 502.681 1589.56 502.681Z"/></mask><g mask="url(#mask0)"><path fill="url(#paint6_linear)" d="M1589.56 502.681H1711.34C1711.34 502.681 1711.34 331.454 1711.34 240.699C1711.34 172.997 1695.98 51.2075 1653.86 3.63195C1652.03 1.56423 1648.87 1.5642 1647.04 3.63447C1605.39 50.8197 1589.56 173.398 1589.56 240.699C1589.56 333.199 1589.56 502.681 1589.56 502.681Z"/><ellipse cx="1650.5" cy="86.699" fill="url(#paint7_linear)" rx="148.5" ry="95.5"/><ellipse cx="1650.5" cy="114.699" fill="url(#paint8_linear)" opacity=".3" rx="148.5" ry="95.5"/><path fill="url(#paint9_linear)" d="M1576.21 253.837C1576.21 253.837 1601.6 270.09 1650.45 270.09C1699.3 270.09 1724.69 253.837 1724.69 253.837V495.168H1576.21V253.837Z" opacity=".3"/><g filter="url(#filter0_d)"><path fill="url(#paint10_linear)" d="M1616 445.198C1616 426.421 1631.22 411.198 1650 411.198C1668.78 411.198 1684 426.421 1684 445.198V492.198H1616V445.198Z"/></g><path fill="url(#paint11_linear)" d="M1638.08 263.607C1598.24 263.607 1567.59 248.575 1565 243.199L1579.21 540.552C1582.42 544.714 1602.68 552.039 1658 548.044C1631.1 497.314 1633.55 305.666 1638.08 263.607Z" opacity=".4"/><path stroke="#fff" stroke-dasharray=".1 5" stroke-linecap="round" stroke-width="2" d="M1576 180.199C1601.11 193.608 1660.69 205.87 1728 180.199" opacity=".6"/><path stroke="#fff" stroke-dasharray=".1 5" stroke-linecap="round" stroke-width="2" d="M1568 293.199C1596.75 312.866 1664.95 330.85 1742 293.199" opacity=".6"/><path fill="url(#paint12_linear)" d="M1646.38 502.681H1742.5C1786.76 363.49 1765.05 77.3975 1649 -4.80127C1683 125.699 1693.48 354.559 1646.38 502.681Z" opacity=".8"/><path fill="url(#paint13_linear)" d="M1669.2 502.681H1715.98C1760.24 363.49 1745.48 154.551 1669.5 20.1987C1699.21 154.104 1716.31 354.559 1669.2 502.681Z" opacity=".8"/><path fill="url(#paint14_linear)" d="M1622.04 505.383L1580.35 501.622C1541.97 358.706 1551 112.699 1649 -1.80127C1592.34 102.699 1581.2 353.298 1622.04 505.383Z" opacity=".5"/><path fill="url(#paint15_linear)" d="M1621 445.198C1621 429.182 1633.98 416.198 1650 416.198C1666.02 416.198 1679 429.182 1679 445.198V492.198H1621V445.198Z"/><path fill="url(#paint16_linear)" d="M1636.16 356.094L1648.97 356.163L1648.31 389.155L1636 389.198L1636.16 356.094Z"/><path fill="url(#paint17_linear)" d="M1668.86 335.198L1668.99 364.954L1657.59 364.826L1657.35 345.378L1636.09 345.468L1636.15 335.361L1668.86 335.198Z"/><g filter="url(#filter1_d)"><circle cx="1651" cy="264.928" r="33.73" fill="url(#paint18_linear)"/></g><ellipse cx="1651" cy="264.929" fill="url(#paint19_linear)" rx="25.687" ry="25.687"/><ellipse cx="1663.35" cy="253.215" fill="url(#paint20_linear)" opacity=".65" rx="5.749" ry="5.749"/></g><path fill="url(#paint21_linear)" d="M1618.13 499.199L1602 566.199H1698L1681.87 499.199H1618.13Z"/><path fill="url(#paint22_linear)" d="M1618.51 498.826L1602.43 566.199H1698.12L1682.04 498.826H1618.51Z"/><path fill="url(#paint23_linear)" d="M1631.25 498.826L1621.61 566.199H1678.94L1669.31 498.826H1631.25Z" opacity=".4"/><path fill="url(#paint24_linear)" d="M1641.67 498.826L1637.32 566.199H1663.24L1658.88 498.826H1641.67Z" opacity=".4"/><path fill="url(#paint25_linear)" fill-rule="evenodd" d="M1688.51 519.94C1687.65 520.124 1686.76 520.22 1685.85 520.22H1615.05C1614.03 520.22 1613.03 520.098 1612.07 519.866L1618.51 498.826H1682.04L1688.51 519.94Z" clip-rule="evenodd" opacity=".4"/><mask id="mask1" width="90" height="179" x="1513" y="396" mask-type="alpha" maskUnits="userSpaceOnUse"><path fill="url(#paint26_linear)" d="M1602.5 502.699V396.199C1594.99 396.199 1587.99 399.911 1584.08 406.321C1569.86 429.653 1535.21 491.605 1513 574.199L1575.85 513.469C1583 506.56 1592.56 502.699 1602.5 502.699Z"/></mask><g mask="url(#mask1)"><path fill="url(#paint27_linear)" d="M1602.5 502.699V396.199C1594.99 396.199 1587.99 399.911 1584.08 406.321C1569.86 429.653 1535.21 491.605 1513 574.199L1575.85 513.469C1583 506.56 1592.56 502.699 1602.5 502.699Z"/><path fill="url(#paint28_linear)" d="M1617.5 509.699V403.199C1602.18 403.199 1588.22 411.839 1582.07 425.875C1569.29 455.083 1546.98 510.6 1528 581.199L1590.85 520.469C1598 513.56 1607.56 509.699 1617.5 509.699Z"/><g filter="url(#filter2_d)" opacity=".3"><path fill="url(#paint29_linear)" d="M1515.65 564.637C1514.75 567.792 1513.87 570.98 1513 574.199L1575.85 513.469C1583 506.56 1592.56 502.699 1602.5 502.699V495.699C1592.56 495.699 1583 499.56 1575.85 506.469L1515.65 564.637Z"/></g><rect width="32" height="137" x="1584" y="380.199" fill="url(#paint30_linear)" opacity=".4"/><rect width="32" height="137" x="1591" y="380.199" fill="url(#paint31_linear)" opacity=".4"/></g><mask id="mask2" width="90" height="179" x="1699" y="396" mask-type="alpha" maskUnits="userSpaceOnUse"><path fill="url(#paint32_linear)" d="M1699 502.699V396.199C1706.51 396.199 1713.51 399.911 1717.42 406.321C1731.64 429.653 1766.29 491.605 1788.5 574.199L1725.65 513.469C1718.5 506.56 1708.94 502.699 1699 502.699Z"/></mask><g mask="url(#mask2)"><path fill="url(#paint33_linear)" d="M1699 502.699V396.199C1706.51 396.199 1713.51 399.911 1717.42 406.321C1731.64 429.653 1766.29 491.605 1788.5 574.199L1725.65 513.469C1718.5 506.56 1708.94 502.699 1699 502.699Z"/><path fill="url(#paint34_linear)" d="M1684 509.699V403.199C1699.32 403.199 1713.28 411.839 1719.43 425.875C1732.21 455.083 1754.52 510.6 1773.5 581.199L1710.65 520.469C1703.5 513.56 1693.94 509.699 1684 509.699Z"/><g filter="url(#filter3_d)" opacity=".3"><path fill="url(#paint35_linear)" d="M1785.85 564.637C1786.75 567.792 1787.63 570.98 1788.5 574.199L1725.65 513.469C1718.5 506.56 1708.94 502.699 1699 502.699V495.699C1708.94 495.699 1718.5 499.56 1725.65 506.469L1785.85 564.637Z"/></g><rect width="32" height="137" fill="url(#paint36_linear)" opacity=".4" transform="matrix(-1 0 0 1 1717.5 380.199)"/><rect width="32" height="137" fill="url(#paint37_linear)" opacity=".4" transform="matrix(-1 0 0 1 1710.5 380.199)"/><rect width="32" height="137" fill="url(#paint38_linear)" opacity=".4" transform="matrix(-1 0 0 1 1704.5 380.199)"/></g><rect width="112.472" height="16.532" x="1595" y="492.501" fill="url(#paint39_linear)" rx="8.266"/><path stroke="#fff" stroke-dasharray=".09 18.84" stroke-linecap="round" stroke-width="8.476" d="M1607.01 501.203H1695.6" opacity=".6"/><rect width="58.132" height="16.532" x="1649.34" y="492.501" fill="url(#paint40_linear)" opacity=".4" rx="8.266"/><path fill="url(#paint41_linear)" d="M1552.12 573.438H1606.72V599.828H1544.28L1552.12 573.438Z"/><path fill="url(#paint42_linear)" d="M1603.6 528L1581.99 599.486L1547.4 599.828L1567.77 528L1603.6 528Z" opacity=".5"/><path fill="url(#paint43_linear)" d="M1622 492L1586.93 599.486L1565 600L1598.46 492L1622 492Z"/><path fill="url(#paint44_linear)" d="M1550.7 603.862C1554.1 603.862 1556.86 601.104 1556.86 597.702C1556.86 594.3 1554.1 591.542 1550.7 591.542C1547.3 591.542 1544.54 594.3 1544.54 597.702C1544.54 601.104 1547.3 603.862 1550.7 603.862Z"/><path fill="url(#paint45_linear)" d="M1552.64 603.861C1556.05 603.861 1558.8 601.104 1558.8 597.702C1558.8 594.3 1556.05 591.542 1552.64 591.542C1549.24 591.542 1546.48 594.3 1546.48 597.702C1546.48 601.104 1549.24 603.861 1552.64 603.861Z"/><path fill="url(#paint46_linear)" d="M1540 581.492H1570.67V599.828H1540V581.492Z"/><path fill="url(#paint47_linear)" d="M1554.02 581.492H1572.42V599.828H1554.02V581.492Z" opacity=".5"/><path fill="url(#paint48_linear)" d="M1546.42 563.662H1577.09V581.997H1546.42V563.662Z"/><path fill="url(#paint49_linear)" d="M1559.74 563.662H1579.06V581.997H1559.74V563.662Z" opacity=".5"/><path fill="url(#paint50_linear)" d="M1551.41 545.831H1582.08V564.166H1551.41V545.831Z"/><path fill="url(#paint51_linear)" d="M1564.69 545.831H1584.09V564.166H1564.69V545.831Z" opacity=".5"/><path fill="url(#paint52_linear)" d="M1557.12 528H1587.79V546.335H1557.12V528Z"/><path fill="url(#paint53_linear)" d="M1568 510H1598.67V528.335H1568V510Z"/><path fill="url(#paint54_linear)" d="M1579 492H1607V510H1579V492Z"/><path fill="url(#paint55_linear)" d="M1572.42 528H1589.79V546.335H1572.42V528Z" opacity=".5"/><path fill="url(#paint56_linear)" d="M1582.3 510H1599.67V528.335H1582.3V510Z" opacity=".5"/><path fill="url(#paint57_linear)" d="M1591.18 492H1608.55V510.335H1591.18V492Z" opacity=".5"/><path fill="url(#paint58_linear)" d="M1578.58 603.862C1581.98 603.862 1584.74 601.104 1584.74 597.702C1584.74 594.3 1581.98 591.542 1578.58 591.542C1575.18 591.542 1572.42 594.3 1572.42 597.702C1572.42 601.104 1575.18 603.862 1578.58 603.862Z"/><path fill="url(#paint59_linear)" d="M1580.52 603.861C1583.93 603.861 1586.68 601.104 1586.68 597.702C1586.68 594.3 1583.93 591.542 1580.52 591.542C1577.12 591.542 1574.36 594.3 1574.36 597.702C1574.36 601.104 1577.12 603.861 1580.52 603.861Z"/><path fill="url(#paint60_linear)" d="M1580.85 601.268C1582.64 601.268 1584.09 599.816 1584.09 598.026C1584.09 596.235 1582.64 594.784 1580.85 594.784C1579.06 594.784 1577.61 596.235 1577.61 598.026C1577.61 599.816 1579.06 601.268 1580.85 601.268Z"/><path fill="url(#paint61_linear)" d="M1601.92 603.862C1605.32 603.862 1608.08 601.104 1608.08 597.702C1608.08 594.3 1605.32 591.542 1601.92 591.542C1598.52 591.542 1595.76 594.3 1595.76 597.702C1595.76 601.104 1598.52 603.862 1601.92 603.862Z"/><path fill="url(#paint62_linear)" d="M1603.86 603.861C1607.27 603.861 1610.02 601.104 1610.02 597.702C1610.02 594.3 1607.27 591.542 1603.86 591.542C1600.46 591.542 1597.7 594.3 1597.7 597.702C1597.7 601.104 1600.46 603.861 1603.86 603.861Z"/><path fill="url(#paint63_linear)" d="M1604.19 601.268C1605.98 601.268 1607.43 599.816 1607.43 598.026C1607.43 596.235 1605.98 594.784 1604.19 594.784C1602.4 594.784 1600.95 596.235 1600.95 598.026C1600.95 599.816 1602.4 601.268 1604.19 601.268Z"/><mask id="mask3" width="29" height="43" x="1435" y="587" mask-type="alpha" maskUnits="userSpaceOnUse"><path fill="#fff" d="M1463.9 594.689L1435.99 587.532L1439.84 625.438C1440.09 627.892 1442.16 629.76 1444.62 629.76H1454.09C1456.44 629.76 1458.45 628.052 1458.83 625.726L1463.9 594.689Z"/></mask><g mask="url(#mask3)"><path fill="url(#paint64_linear)" d="M1463.9 594.689L1435.99 587.532L1439.35 620.588C1439.88 625.797 1444.26 629.76 1449.5 629.76C1454.5 629.76 1458.77 626.135 1459.57 621.199L1463.9 594.689Z"/><ellipse cx="1452.43" cy="598" fill="url(#paint65_linear)" opacity=".696" rx="25.5" ry="17"/></g><mask id="mask4" width="32" height="38" x="1461" y="594" mask-type="alpha" maskUnits="userSpaceOnUse"><path fill="#fff" d="M1492.53 594.689H1461.75L1468.15 627.309C1468.59 629.564 1470.57 631.192 1472.87 631.192H1482.69C1485.06 631.192 1487.07 629.468 1487.44 627.129L1492.53 594.689Z"/></mask><g mask="url(#mask4)"><path fill="url(#paint66_linear)" d="M1492.53 594.689H1461.75L1467.22 622.582C1468.2 627.584 1472.59 631.192 1477.68 631.192C1482.93 631.192 1487.4 627.369 1488.22 622.182L1492.53 594.689Z"/><ellipse cx="1477.43" cy="599" fill="url(#paint67_linear)" opacity=".696" rx="25.5" ry="17"/></g><path fill="url(#paint68_linear)" d="M1421.31 539.89C1420.69 535.686 1416.78 532.779 1412.57 533.398C1408.37 534.017 1405.46 537.926 1406.08 542.13C1408.59 559.195 1422.16 570.962 1438.26 572.657C1442.49 573.102 1446.27 570.037 1446.72 565.811C1447.16 561.653 1444.2 557.921 1440.08 557.378L1439.87 557.354C1430.47 556.363 1422.75 549.667 1421.31 539.89Z"/><path fill="url(#paint69_linear)" fill-rule="evenodd" d="M1440.83 572.495L1442.72 558.232C1441.92 557.799 1441.03 557.502 1440.07 557.376L1439.87 557.352C1430.46 556.362 1422.74 549.665 1421.3 539.888C1421.04 538.107 1420.19 536.559 1418.97 535.414C1419.04 544.214 1419.95 557.659 1424.53 564.27C1426.56 567.191 1428.71 569.407 1430.75 571.083C1433.16 571.853 1435.68 572.384 1438.26 572.655C1439.14 572.749 1440.01 572.688 1440.83 572.495Z" clip-rule="evenodd" opacity=".227"/><rect width="16.81" height="13.754" fill="url(#paint70_linear)" rx="5.941" transform="matrix(-1 0 0 1 1512.88 552.047)"/><rect width="29.345" height="37.934" fill="url(#paint71_linear)" rx="5.941" transform="matrix(-1 0 0 1 1508.27 546.736)"/><path fill="url(#paint72_linear)" d="M1501.83 551.81C1501.83 550.193 1500.52 548.883 1498.91 548.883H1475.42C1473.8 548.883 1472.49 550.193 1472.49 551.81V581.743C1472.49 583.359 1473.8 584.669 1475.42 584.669H1498.91C1500.52 584.669 1501.83 583.359 1501.83 581.743V551.81Z" opacity=".4"/><mask id="mask5" width="67" height="55" x="1433" y="554" mask-type="alpha" maskUnits="userSpaceOnUse"><path fill="#fff" d="M1492.53 554.609H1435.27L1433.83 590.609C1433.44 600.257 1441.16 608.289 1450.82 608.289H1475.6C1491.37 608.289 1502.86 593.341 1498.79 578.105L1492.53 554.609Z"/></mask><g mask="url(#mask5)"><path fill="url(#paint73_linear)" d="M1492.53 554.609H1435.27L1433.8 591.331C1433.43 600.585 1440.83 608.289 1450.09 608.289H1475.55C1491.35 608.289 1502.85 593.315 1498.78 578.053L1492.53 554.609Z"/><path fill="#17413B" d="M1451.43 558C1451.69 558 1451.9 558.302 1451.92 558.689L1451.93 558.767V583.233C1451.93 583.656 1451.7 584 1451.43 584C1451.17 584 1450.96 583.698 1450.93 583.311L1450.93 583.233V558.767C1450.93 558.344 1451.15 558 1451.43 558Z" opacity=".3"/><path fill="url(#paint74_linear)" d="M1492.36 557.511C1490.02 553.732 1485.05 552.569 1481.27 554.913C1477.49 557.258 1476.33 562.221 1478.68 566C1484.37 575.18 1486.83 583.853 1486.09 595.124C1485.8 599.561 1489.16 603.395 1493.6 603.686C1498.03 603.978 1501.87 600.618 1502.16 596.18C1503.12 581.589 1499.84 569.574 1492.36 557.511Z" opacity=".523"/><path fill="url(#paint75_linear)" d="M1487.37 610.141L1454.46 588.667C1448.48 584.766 1440.56 589.056 1440.56 596.195V606.047L1463.75 612.731L1487.37 610.141Z" opacity=".3"/></g><path fill="url(#paint76_linear)" d="M1463.54 558.903C1441.6 558.903 1423.82 541.118 1423.82 519.18C1423.82 497.242 1441.6 479.457 1463.54 479.457C1485.48 479.457 1503.26 497.242 1503.26 519.18C1503.26 541.118 1485.48 558.903 1463.54 558.903Z"/><mask id="mask6" width="81" height="80" x="1423" y="479" mask-type="alpha" maskUnits="userSpaceOnUse"><path fill="#fff" d="M1463.54 558.903C1441.6 558.903 1423.82 541.118 1423.82 519.18C1423.82 497.242 1441.6 479.457 1463.54 479.457C1485.48 479.457 1503.26 497.242 1503.26 519.18C1503.26 541.118 1485.48 558.903 1463.54 558.903Z"/></mask><g mask="url(#mask6)"><path fill="url(#paint77_linear)" d="M1502.41 497.182C1502.41 497.182 1488.2 488.67 1479.25 488.67C1470.29 488.67 1458.53 494.944 1447.14 494.944C1435.74 494.944 1435.64 482.683 1435.64 482.683L1472.31 475.715L1495.81 482.683L1502.41 497.182Z"/><path fill="url(#paint78_linear)" d="M1427.79 496.379C1427.79 496.379 1430.41 494.228 1433.24 495.304C1436.07 496.379 1436.44 499.966 1443.31 502.002C1450.18 504.038 1461.78 498.645 1469.02 502.002C1478.59 506.437 1484.94 520.797 1481.07 536.74C1477.02 551.319 1466.24 561.756 1466.24 561.756L1432.76 553.703L1417.62 521.859L1427.79 496.379Z"/><path fill="#17413B" d="M1480.94 479.308L1479.94 479.138C1472.35 477.872 1467.2 477.609 1462.39 478.572C1456.06 479.84 1451.13 483.314 1447.5 489.556C1447.22 490.034 1447.38 490.648 1447.86 490.926C1448.34 491.205 1448.95 491.043 1449.23 490.564C1452.57 484.823 1457.01 481.693 1462.79 480.537C1467.5 479.593 1472.68 479.911 1480.6 481.283C1481.15 481.378 1481.67 481.012 1481.76 480.467C1481.85 479.921 1481.49 479.403 1480.94 479.308Z"/><path fill="#fff" fill-opacity=".327" d="M1468.48 515.93C1467.69 514.037 1466.75 512.134 1465.67 510.222C1465.23 509.448 1465.5 508.465 1466.27 508.027C1467.05 507.589 1468.03 507.862 1468.47 508.636C1469.61 510.656 1470.61 512.673 1471.45 514.684C1471.79 515.505 1471.41 516.448 1470.59 516.792C1469.77 517.136 1468.82 516.75 1468.48 515.93Z"/><path fill="#fff" fill-opacity=".327" d="M1469.98 547.298C1469.15 546.962 1468.76 546.022 1469.09 545.198C1470.7 541.257 1471.35 536.67 1471.22 531.632C1471.13 528.132 1470.76 525.346 1470.06 521.434C1469.9 520.559 1470.48 519.722 1471.36 519.564C1472.23 519.406 1473.07 519.988 1473.23 520.863C1473.96 524.924 1474.34 527.847 1474.44 531.549C1474.58 536.998 1473.88 542.012 1472.08 546.417C1471.74 547.24 1470.8 547.635 1469.98 547.298Z"/></g><rect width="12.883" height="15.746" fill="url(#paint79_linear)" rx="2.3" transform="matrix(-0.992546 0.121869 0.121869 0.992546 1496.53 505.929)"/><rect width="12.883" height="15.746" fill="url(#paint80_linear)" rx="2.3" transform="matrix(-0.992546 0.121869 0.121869 0.992546 1497.96 505.929)"/><path fill="url(#paint81_linear)" d="M1485.96 513.892L1486.31 516.734C1486.45 517.884 1486.89 518.926 1487.53 519.794L1490.87 519.198L1489.75 510.205L1486.68 510.055C1486.07 511.189 1485.79 512.516 1485.96 513.892Z" opacity=".482"/><path fill="#17413B" d="M1489.24 509.887C1489.21 509.688 1489.45 509.569 1489.59 509.713L1490.27 510.402L1491.41 518.857L1490.95 519.742C1490.85 519.922 1490.58 519.874 1490.55 519.673L1489.24 509.887Z"/><path fill="url(#paint82_linear)" d="M1494.51 557.511C1492.16 553.732 1487.2 552.569 1483.42 554.913C1479.64 557.258 1478.48 562.221 1480.82 566C1486.52 575.18 1488.98 583.853 1488.24 595.124C1487.95 599.561 1491.31 603.395 1495.74 603.686C1500.18 603.978 1504.01 600.618 1504.31 596.18C1505.27 581.589 1501.99 569.574 1494.51 557.511Z"/><path fill="url(#paint83_linear)" fill-rule="evenodd" d="M1436.73 547.858C1434.87 546.235 1432.04 546.429 1430.42 548.291C1428.79 550.153 1428.99 552.979 1430.85 554.602C1439.4 562.058 1451.86 565.444 1465.25 564.935C1477.25 564.479 1488.69 560.859 1494.78 555.419C1496.62 553.774 1496.78 550.946 1495.14 549.103C1493.53 547.305 1490.8 547.11 1488.96 548.629L1488.82 548.746C1484.5 552.608 1475 555.611 1464.91 555.994C1453.62 556.424 1443.36 553.636 1436.73 547.858Z" clip-rule="evenodd"/><mask id="mask7" width="68" height="19" x="1429" y="546" mask-type="alpha" maskUnits="userSpaceOnUse"><path fill="#fff" fill-rule="evenodd" d="M1436.73 547.858C1434.87 546.235 1432.04 546.429 1430.42 548.291C1428.79 550.153 1428.99 552.979 1430.85 554.602C1439.4 562.058 1451.86 565.444 1465.25 564.935C1477.25 564.479 1488.69 560.859 1494.78 555.419C1496.62 553.774 1496.78 550.946 1495.14 549.103C1493.53 547.305 1490.8 547.11 1488.96 548.629L1488.82 548.746C1484.5 552.608 1475 555.611 1464.91 555.994C1453.62 556.424 1443.36 553.636 1436.73 547.858Z" clip-rule="evenodd"/></mask><g mask="url(#mask7)"><path fill="url(#paint84_linear)" d="M1485.44 548.98L1484.91 549.915C1489.23 552.351 1491.11 556.128 1490.54 561.401L1490.5 561.69L1491.57 561.823C1492.29 556.074 1490.29 551.826 1485.69 549.121L1485.44 548.98Z" opacity=".969"/><path fill="url(#paint85_linear)" d="M1477.87 552.146L1477 552.778C1479.43 556.11 1480.77 559.94 1481.22 564.406L1481.26 564.855L1482.33 564.764C1481.93 560.071 1480.59 556.018 1478.11 552.486L1477.87 552.146Z" opacity=".969"/><path fill="url(#paint86_linear)" d="M1468.48 552.55L1467.42 552.724L1467.54 553.417L1467.74 554.51C1468.63 559.285 1468.79 562.111 1468.08 567.997L1468.02 568.456L1469.09 568.589L1469.2 567.665C1469.84 562.118 1469.69 559.218 1468.86 554.685L1468.56 552.999L1468.48 552.55Z" opacity=".969"/><path fill="url(#paint87_linear)" d="M1458.91 551.305L1457.86 551.117L1457.6 552.512C1456.43 558.936 1456.13 562.354 1456.7 568.082L1456.75 568.578L1457.82 568.465C1457.21 562.72 1457.45 559.408 1458.56 553.241L1458.91 551.305Z" opacity=".969"/><path fill="url(#paint88_linear)" d="M1447.54 550.953C1445.57 556.76 1444.71 560.736 1444.71 565.948L1444.71 566.44L1445.79 566.43C1445.74 561.276 1446.51 557.422 1448.38 551.828L1448.56 551.299L1447.54 550.953Z" opacity=".969"/><path fill="url(#paint89_linear)" d="M1440.23 547.67L1439.33 547.099L1438.99 547.635C1435.45 553.242 1434.26 556.257 1434.46 561.449L1434.48 561.784L1435.55 561.73C1435.3 556.819 1436.3 554.004 1439.47 548.888L1440.23 547.67Z" opacity=".969"/></g><path fill="url(#paint90_linear)" fill-rule="evenodd" d="M1491.81 542.441C1491.42 542.441 1491.1 542.121 1491.1 541.725C1491.1 541.33 1491.42 541.01 1491.81 541.01C1492.21 541.01 1492.53 541.33 1492.53 541.725C1492.53 542.121 1492.21 542.441 1491.81 542.441Z" clip-rule="evenodd"/><path fill="url(#paint91_linear)" fill-rule="evenodd" d="M1488.95 545.304C1488.56 545.304 1488.23 544.984 1488.23 544.588C1488.23 544.193 1488.56 543.873 1488.95 543.873C1489.35 543.873 1489.67 544.193 1489.67 544.588C1489.67 544.984 1489.35 545.304 1488.95 545.304Z" clip-rule="evenodd"/><path fill="url(#paint92_linear)" fill-rule="evenodd" d="M1486.09 547.452C1485.69 547.452 1485.37 547.132 1485.37 546.736C1485.37 546.341 1485.69 546.021 1486.09 546.021C1486.48 546.021 1486.8 546.341 1486.8 546.736C1486.8 547.132 1486.48 547.452 1486.09 547.452Z" clip-rule="evenodd"/><path fill="url(#paint93_linear)" fill-rule="evenodd" d="M1496.81 557.85C1490.61 553.289 1479.61 558.635 1479.61 567.781C1479.62 570.496 1483.34 572.592 1483.45 571.312C1484.03 564.684 1491.83 560.044 1497.26 562.39L1497.42 562.465C1498.59 563.005 1499.43 559.785 1496.81 557.85Z" clip-rule="evenodd"/><rect width="2.3" height="11.498" fill="#E9F7FF" opacity=".8" rx="1.15" transform="matrix(-1 0 0 1 1440.23 567)"/><path fill="#E9F7FF" fill-rule="evenodd" d="M1469.17 572.828V578.443H1467V572.828H1469.17ZM1473.51 569V574.615H1471.34V571.042H1467V569H1473.51Z" clip-rule="evenodd"/><path stroke="url(#paint94_linear)" stroke-width="1.521" d="M-232.521 980.56L277.676 829.583C281.56 828.433 282.537 823.385 279.363 820.869L224.334 777.261C221.09 774.69 222.196 769.517 226.207 768.496L337.235 740.255C338.673 739.889 340.2 740.181 341.402 741.053L353.712 749.978C354.932 750.862 356.486 751.15 357.942 750.759L410.589 736.641"/><path stroke="url(#paint95_linear)" stroke-width="1.521" d="M-242.044 885.017L148.124 801.449C151.392 800.749 152.412 796.587 149.837 794.456L134.073 781.406C131.495 779.272 132.521 775.104 135.796 774.412L494.407 698.551"/><path stroke="url(#paint96_linear)" stroke-width="1.521" d="M-241.521 830.097L101.09 762.251C103.634 761.747 104.384 758.472 102.313 756.912L88.9502 746.845C86.8409 745.256 87.6656 741.914 90.2719 741.488L195.538 724.299C199.989 723.572 204.555 724.371 208.494 726.565L230.941 739.07C235.056 741.362 239.849 742.129 244.475 741.233L502.013 691.38"/><path stroke="url(#paint97_linear)" stroke-width="1.521" d="M-278 735.252L-46.1585 704.588C-41.6904 703.997 -37.1536 704.933 -33.2837 707.243L7.41447 731.541C11.4305 733.939 16.1599 734.853 20.7802 734.125L224.526 702.017C229.223 701.277 234.031 702.234 238.086 704.718L270.867 724.798C275.077 727.377 280.092 728.307 284.947 727.411L413.437 703.675"/><path fill="url(#paint98_linear)" d="M593.978 768.078L598.313 775.395L707.928 762.344V720.516L664.762 718.674L593.978 768.078Z"/><path fill="url(#paint99_linear)" d="M310.901 540.392V543.529C358.906 550.104 403.192 563.411 443.76 583.452C504.612 613.513 596.67 673.659 596.67 766.002C603.13 752.403 599.16 706.703 584.761 628.901L389.858 530.22L310.901 540.392Z"/><path fill="url(#paint100_linear)" d="M310.902 540.392C342.699 520.655 358.597 510.787 358.597 510.787C487.98 514.306 673.98 586.806 707.93 720.517C637.166 750.244 599.183 766.098 593.98 768.079C598.577 732.627 587.518 698.299 560.804 665.095C520.734 615.288 467.015 587.699 433.457 572.972C399.899 558.246 331.405 540.392 310.902 540.392Z"/><path fill="url(#paint101_linear)" fill-rule="evenodd" d="M414.391 557.235C393.31 548.407 373.406 542.457 354.679 539.386C359.518 535.232 364.656 531.238 370.094 527.404C381.836 528.581 392.717 530.387 402.736 532.823C412.755 535.258 421.418 538.009 428.723 541.074L414.391 557.235Z" clip-rule="evenodd"/><path fill="url(#paint102_linear)" fill-rule="evenodd" d="M460.818 566.525C462.161 555.04 467.794 547.922 477.716 545.172C492.599 541.046 504.297 551.49 506.192 561.081C508.087 570.672 503.681 580.786 495.66 585.542C477.697 586.532 466.083 580.193 460.818 566.525Z" clip-rule="evenodd"/><path fill="url(#paint103_linear)" d="M465.517 568.63C466.357 568.63 467.038 567.96 467.038 567.134C467.038 566.308 466.357 565.639 465.517 565.639C464.677 565.639 463.997 566.308 463.997 567.134C463.997 567.96 464.677 568.63 465.517 568.63Z"/><path fill="url(#paint104_linear)" d="M470.079 556.666C470.919 556.666 471.6 555.996 471.6 555.17C471.6 554.344 470.919 553.675 470.079 553.675C469.239 553.675 468.559 554.344 468.559 555.17C468.559 555.996 469.239 556.666 470.079 556.666Z"/><path fill="url(#paint105_linear)" d="M480.725 550.684C481.565 550.684 482.246 550.014 482.246 549.188C482.246 548.362 481.565 547.693 480.725 547.693C479.885 547.693 479.204 548.362 479.204 549.188C479.204 550.014 479.885 550.684 480.725 550.684Z"/><path fill="url(#paint106_linear)" d="M494.411 555.17C495.251 555.17 495.932 554.501 495.932 553.675C495.932 552.849 495.251 552.179 494.411 552.179C493.571 552.179 492.891 552.849 492.891 553.675C492.891 554.501 493.571 555.17 494.411 555.17Z"/><path fill="url(#paint107_linear)" d="M500.494 568.63C501.334 568.63 502.015 567.96 502.015 567.134C502.015 566.308 501.334 565.639 500.494 565.639C499.654 565.639 498.974 566.308 498.974 567.134C498.974 567.96 499.654 568.63 500.494 568.63Z"/><path fill="url(#paint108_linear)" d="M494.411 580.594C495.251 580.594 495.932 579.924 495.932 579.099C495.932 578.273 495.251 577.603 494.411 577.603C493.571 577.603 492.891 578.273 492.891 579.099C492.891 579.924 493.571 580.594 494.411 580.594Z"/><path fill="url(#paint109_linear)" fill-rule="evenodd" d="M488.824 550.011C489.171 550.148 489.358 550.508 489.284 550.855L489.245 550.984L482.591 567.182C483.294 567.794 483.566 568.798 483.194 569.703C482.722 570.852 481.393 571.407 480.225 570.943C479.057 570.479 478.492 569.171 478.964 568.023C479.336 567.117 480.242 566.58 481.181 566.621L487.835 550.424C487.992 550.041 488.435 549.856 488.824 550.011Z" clip-rule="evenodd"/><path fill="url(#paint110_linear)" d="M614.841 730.713C612.762 731.731 611.767 734.137 612.52 736.326C613.388 738.853 616.224 740.106 618.677 739.046L652.84 724.295C655.731 723.046 656.975 719.622 655.56 716.809C654.212 714.128 650.957 713.033 648.263 714.352L614.841 730.713Z"/><path fill="url(#paint111_linear)" fill-rule="evenodd" d="M593.978 669.504L614.048 658.638C628.405 674.715 637.683 687.115 641.882 695.838C636.797 698.316 628.813 701.865 617.93 706.484L593.978 669.504Z" clip-rule="evenodd" opacity=".3"/><path stroke="#EBFFFB" stroke-linecap="round" stroke-width="1.521" d="M620.082 676.688L609.785 663.857" opacity=".5"/><path stroke="#EBFFFB" stroke-linecap="round" stroke-width="1.521" d="M602.844 667.301L608.205 674.635" opacity=".5"/><path fill="url(#paint112_linear)" d="M511.139 604.522C513.659 604.522 515.702 602.514 515.702 600.036C515.702 597.558 513.659 595.549 511.139 595.549C508.62 595.549 506.577 597.558 506.577 600.036C506.577 602.514 508.62 604.522 511.139 604.522Z"/><path fill="url(#paint113_linear)" d="M593.259 637.423C595.779 637.423 597.821 635.415 597.821 632.937C597.821 630.459 595.779 628.45 593.259 628.45C590.739 628.45 588.697 630.459 588.697 632.937C588.697 635.415 590.739 637.423 593.259 637.423Z"/><path stroke="#1D5047" stroke-linecap="round" stroke-width="1.521" d="M517.573 583.813L538.234 600.037" opacity=".5"/><path stroke="#1D5047" stroke-linecap="round" stroke-width="1.521" d="M519.765 579.098L526.615 583.811" opacity=".5"/><path stroke="#1D5047" stroke-linecap="round" stroke-width="1.521" d="M522.105 574.285L554.193 595.551" opacity=".5"/><path stroke="#1D5047" stroke-linecap="round" stroke-width="1.521" d="M524.68 569.854L537.062 576.294" opacity=".5"/><path fill="url(#paint114_linear)" d="M529.388 564.143C530.228 564.143 530.909 563.474 530.909 562.648C530.909 561.822 530.228 561.152 529.388 561.152C528.549 561.152 527.868 561.822 527.868 562.648C527.868 563.474 528.549 564.143 529.388 564.143Z"/><path fill="url(#paint115_linear)" d="M538.513 568.63C539.353 568.63 540.034 567.96 540.034 567.134C540.034 566.308 539.353 565.639 538.513 565.639C537.673 565.639 536.992 566.308 536.992 567.134C536.992 567.96 537.673 568.63 538.513 568.63Z"/><path fill="url(#paint116_linear)" d="M546.116 573.116C546.956 573.116 547.637 572.447 547.637 571.621C547.637 570.795 546.956 570.125 546.116 570.125C545.277 570.125 544.596 570.795 544.596 571.621C544.596 572.447 545.277 573.116 546.116 573.116Z"/><g opacity=".3"><path fill="url(#paint117_linear)" fill-rule="evenodd" d="M388.949 507.067C419.117 509.699 452.169 514.626 486.289 523.853V405.956C454.697 409.011 422.046 410.574 388.949 410.432V507.067ZM613.819 581.254C573.894 554.408 532.354 536.897 492.143 525.476V405.372C535.289 400.93 576.374 393.707 613.819 384.251V581.254ZM619.673 585.266C672.948 622.474 723.064 676.728 762.936 755.838V321.262C729.151 345.927 679.215 367.181 619.673 382.747V585.266ZM386.031 506.819V410.415C357.32 410.205 328.288 408.71 299.331 405.79V504.051C322.907 504.051 352.643 504.051 386.031 506.819Z" clip-rule="evenodd"/><path fill="url(#paint118_radial)" fill-rule="evenodd" d="M484.151 405.6C458.96 408.123 433.1 409.678 406.872 410.145L388.95 428.068V500.801L484.151 405.6ZM386.031 503.719L383.163 506.587C357.042 504.532 333.228 504.143 312.948 504.069L386.031 430.986V503.719ZM762.936 551.972L679.025 635.883C670.102 626.679 660.991 618.117 651.732 610.154L762.936 498.949V551.972ZM762.936 399.662V434.682L619.673 577.945V542.925L762.936 399.662ZM762.936 341.167V348.479L619.673 491.742V484.43L762.936 341.167ZM543.707 397.659C553.707 395.984 563.548 394.157 573.209 392.186L492.143 473.252V449.224L543.707 397.659ZM486.289 425.858V427.803L405.383 508.709C403.081 508.449 400.793 508.204 398.519 507.972L480.634 425.858H486.289ZM429.452 511.915L486.289 455.078V479.106L449.93 515.464C443.024 514.132 436.192 512.955 429.452 511.915ZM522.012 535.057C524.735 536.035 527.46 537.044 530.187 538.085L612.92 455.352H601.718L522.012 535.057ZM555.452 548.651L613.819 490.284V497.596L560.445 550.97C558.782 550.184 557.117 549.411 555.452 548.651ZM593.904 568.694C600.578 572.636 607.221 576.818 613.819 581.255V548.779L593.904 568.694Z" clip-rule="evenodd" opacity=".5"/></g><path fill="url(#paint119_linear)" fill-rule="evenodd" d="M620.246 565.219C617.238 564.335 614.056 565.915 612.944 568.846L595.995 613.503C594.337 617.872 595.366 622.806 598.632 626.148L663.304 692.332C667.011 696.127 673.427 694.579 674.997 689.512L703.615 597.131C704.77 593.4 702.65 589.446 698.903 588.344L620.246 565.219Z" clip-rule="evenodd"/><path fill="url(#paint120_linear)" d="M610.787 620.575C609.457 611.933 611.022 606.537 615.481 604.386C616.58 605.116 618.722 604.628 619.109 605.814C620.825 611.076 618.051 615.997 610.787 620.575Z" opacity=".78"/><path fill="url(#paint121_linear)" fill-rule="evenodd" d="M614.961 599.718C612.858 599.939 611.137 600.963 609.799 602.79C608.461 604.616 607.823 606.728 607.886 609.123C609.837 606.259 612.196 604.692 614.961 604.421C619.11 604.014 620.88 606.753 621.391 610.009C621.731 612.18 621.718 614.269 621.352 616.276C623.394 614.379 624.778 612.161 625.504 609.621C626.229 607.081 625.619 604.34 623.672 601.398L614.961 599.718Z" clip-rule="evenodd"/><path fill="url(#paint122_linear)" d="M612.848 603.329C613.629 604.726 614.843 605.823 616.49 606.62C618.137 607.417 620.047 607.417 622.22 606.62C625.237 600.898 627.356 594.77 628.577 588.236C630.408 578.435 630.157 570.892 628.577 570.892C626.996 570.892 621.694 577.962 617.271 588.997C614.322 596.353 612.848 601.131 612.848 603.329Z"/><path fill="url(#paint123_linear)" d="M628.577 570.892C629.882 570.892 630.28 576.036 629.348 583.347C626.177 583.83 623.315 583.167 620.763 581.358L621.271 580.395C624.483 574.425 627.459 570.892 628.577 570.892Z"/><path fill="url(#paint124_linear)" d="M622.39 595.194C624.295 595.194 625.839 593.676 625.839 591.803C625.839 589.93 624.295 588.412 622.39 588.412C620.486 588.412 618.942 589.93 618.942 591.803C618.942 593.676 620.486 595.194 622.39 595.194Z"/><path fill="url(#paint125_linear)" d="M622.39 593.538C623.365 593.538 624.155 592.761 624.155 591.803C624.155 590.844 623.365 590.067 622.39 590.067C621.416 590.067 620.625 590.844 620.625 591.803C620.625 592.761 621.416 593.538 622.39 593.538Z"/><path stroke="#1D5047" stroke-linecap="round" stroke-width="1.3" d="M628.209 575.422L652.522 584.741" opacity=".5"/><path stroke="#1D5047" stroke-linecap="round" stroke-width="1.3" d="M623.67 594.533L649.538 608.378" opacity=".5"/><path stroke="#1D5047" stroke-linecap="round" stroke-width="1.3" d="M619.108 602.412L633.237 613.421C635.32 615.043 636.097 617.836 635.152 620.301L634.12 622.993C633.122 625.598 634.051 628.548 636.362 630.111L643.951 635.243" opacity=".5"/><path fill="url(#paint126_linear)" fill-rule="evenodd" d="M655.245 581.149C654.239 580.852 653.175 581.382 652.807 582.363L650.228 589.22C649.846 590.239 650.347 591.376 651.357 591.781L688.357 606.605C689.416 607.03 690.616 606.483 690.99 605.405L694.618 594.955C694.993 593.877 694.39 592.704 693.295 592.381L655.245 581.149Z" clip-rule="evenodd" opacity=".78"/><path stroke="#1D5047" stroke-linecap="round" stroke-width="1.521" d="M655.747 586.068L656.448 589.815L662.503 587.942" opacity=".5"/><path fill="url(#paint127_linear)" fill-rule="evenodd" d="M651.719 601.86C651.194 601.617 650.573 601.869 650.366 602.409L646.094 613.531C645.916 613.995 646.106 614.519 646.539 614.762L679.285 633.12C679.828 633.424 680.514 633.164 680.719 632.576L685.611 618.51C685.78 618.024 685.553 617.489 685.086 617.273L651.719 601.86Z" clip-rule="evenodd" opacity=".78"/><path stroke="#1D5047" stroke-linecap="round" stroke-width="1.521" d="M652.521 608.349L653.746 611.481L660.502 609.915" opacity=".5"/><path fill="url(#paint128_linear)" fill-rule="evenodd" d="M645.21 626.479C644.692 626.129 643.984 626.334 643.734 626.907L637.871 640.329C637.7 640.721 637.797 641.178 638.111 641.466L668.649 669.468C669.189 669.963 670.061 669.728 670.28 669.029L676.672 648.603C676.803 648.181 676.643 647.723 676.277 647.476L645.21 626.479Z" clip-rule="evenodd" opacity=".78"/><path stroke="#1D5047" stroke-linecap="round" stroke-width="1.521" d="M645.416 635.243V640.308L653.877 639.433" opacity=".5"/><path stroke="#1D5047" stroke-linecap="round" stroke-width="1.521" d="M637.826 646.885L666.041 674.545" opacity=".5"/><path stroke="#1D5047" stroke-linecap="round" stroke-width="1.521" d="M636.024 651.995L652.702 668.63" opacity=".5"/><path stroke="#1D5047" stroke-linecap="round" stroke-width="1.521" d="M634.024 656.715L641.098 663.603" opacity=".5"/><path fill="url(#paint129_linear)" d="M618.868 629.947C620.128 629.947 621.149 628.943 621.149 627.704C621.149 626.465 620.128 625.46 618.868 625.46C617.608 625.46 616.587 626.465 616.587 627.704C616.587 628.943 617.608 629.947 618.868 629.947Z"/><path fill="url(#paint130_linear)" d="M625.952 637.425C627.211 637.425 628.233 636.42 628.233 635.181C628.233 633.942 627.211 632.938 625.952 632.938C624.692 632.938 623.67 633.942 623.67 635.181C623.67 636.42 624.692 637.425 625.952 637.425Z"/><path fill="url(#paint131_linear)" fill-rule="evenodd" d="M387.618 487.648C386.288 487.543 385.049 488.329 384.577 489.577L374.964 514.986C374.324 516.675 375.313 518.543 377.069 518.964L431.257 531.967C432.822 532.343 434.404 531.417 434.843 529.869L444.532 495.733C445.049 493.911 443.769 492.072 441.881 491.923L387.618 487.648Z" clip-rule="evenodd"/><path stroke="#1D5047" stroke-linecap="round" stroke-width="1.521" d="M389.126 495.395L399.2 496.748"/><path stroke="#1D5047" stroke-linecap="round" stroke-width="1.521" d="M388.385 499.67L393.373 500.289"/><path stroke="#1D5047" stroke-linecap="round" stroke-linejoin="round" stroke-width="1.521" d="M425.412 511.297C429.612 511.297 433.016 507.949 433.016 503.819C433.016 499.69 429.612 496.342 425.412 496.342C421.213 496.342 417.809 499.69 417.809 503.819C417.809 507.949 421.213 511.297 425.412 511.297Z"/><path stroke="#1D5047" stroke-linecap="round" stroke-linejoin="round" stroke-width="1.521" d="M421.653 501.344L423.946 506.322L431.529 501.344"/><path fill="url(#paint132_linear)" fill-rule="evenodd" d="M391.129 528.066C399.398 523.52 403.978 521.247 404.87 521.247C406.207 521.247 399.871 525.402 399.193 528.066C398.514 530.73 398.155 531.564 393.198 533.483C389.894 534.762 389.204 532.956 391.129 528.066Z" clip-rule="evenodd"/><path fill="url(#paint133_linear)" fill-rule="evenodd" d="M325.111 619.989C324.038 645.809 323.501 663.017 323.501 671.611C323.501 684.502 327.023 683.443 332.8 684.393C338.577 685.343 345.358 683.36 345.358 681.021C345.358 678.683 336.059 678.808 334.429 673.013C333.343 669.149 335.084 652.99 339.654 624.536L325.111 619.989Z" clip-rule="evenodd"/><path fill="url(#paint134_linear)" d="M334.542 673.371C336.447 678.803 345.358 678.732 345.358 681.021C345.358 683.308 338.868 685.256 333.178 684.45L332.006 684.271C327.16 683.577 324.07 683.842 323.572 674.521C327.845 675.711 331.458 675.356 334.413 673.456L334.542 673.371Z"/><path fill="url(#paint135_linear)" fill-rule="evenodd" d="M337.927 624.414C340.829 656.817 342.28 675.745 342.28 681.199C342.28 689.381 341.087 694.401 347.445 694.401C353.803 694.401 369.31 690.759 369.31 688.268C369.31 685.777 355.348 686.105 352.472 681.199C350.554 677.929 352.282 659.001 357.656 624.414H337.927Z" clip-rule="evenodd"/><path fill="url(#paint136_linear)" d="M353.182 682.108C357.135 686.075 369.311 685.943 369.311 688.269C369.311 690.76 353.803 694.402 347.446 694.402C341.795 694.402 342.109 690.436 342.248 683.81C346.312 684.87 349.83 684.391 352.805 682.376L353.182 682.108Z"/><path fill="url(#paint137_linear)" d="M318.853 590.06C321.127 606.585 322.263 617.807 322.263 623.725C334.618 633.875 358.006 629.996 359.231 629.027C360.049 628.381 360.457 617.316 360.457 595.832L335.03 572.974L318.853 590.06Z"/><path fill="url(#paint138_linear)" d="M326.647 556.918C322.792 554.678 320.329 552.309 319.26 549.808C317.656 546.058 326.678 528.318 328.688 524.513C330.028 521.977 331.887 520.628 334.263 520.467L326.647 556.918Z"/><path fill="#262626" fill-rule="evenodd" d="M332.239 530.145L326.645 556.92C323.825 555.282 321.75 553.575 320.421 551.797C324.175 542.098 328.115 534.881 332.239 530.145Z" clip-rule="evenodd" opacity=".1"/><path fill="url(#paint139_linear)" d="M334.261 520.469C331.138 528.04 328.323 537.064 325.815 547.539C322.054 563.251 316.482 590.515 316.482 592.999C327.347 601.344 337.792 604.935 362.445 599.826C362.445 598.585 356.551 568.757 360.457 542.923C369.664 547.539 370.707 547.903 378.882 544.528C384.332 542.278 389.752 538.681 395.142 533.737L391.128 528.067C381.873 531.394 376.237 533.284 374.22 533.737C371.195 534.416 363.367 525.825 356.541 522.268C351.99 519.897 348.756 518.712 346.84 518.712L334.261 520.469Z"/><path fill="#262626" fill-rule="evenodd" d="M353.144 538.694L360.456 542.923C358.416 556.413 359.049 570.992 360.119 582.021C355.407 570.791 353.079 556.771 353.135 539.96L353.144 538.694Z" clip-rule="evenodd" opacity=".1"/><path fill="url(#paint140_linear)" fill-rule="evenodd" d="M342.927 505.053C343.604 510.663 342.571 514.798 339.827 517.459C335.711 521.449 347.649 523.364 350.409 521.621C353.17 519.879 351.259 511.675 353.9 510.392C356.541 509.109 359.774 508.568 360.384 505.531C360.994 502.495 357.641 492.437 355.286 490.974C353.716 489.998 350.12 490.228 344.497 491.664L342.927 505.053Z" clip-rule="evenodd"/><path fill="url(#paint141_linear)" fill-rule="evenodd" d="M351.225 496.821C350.151 495.044 348.828 494.155 347.259 494.155C344.904 494.155 345.542 497.81 348.089 498.977C350.636 500.145 347.994 506.945 344.449 507.968C340.904 508.991 336.173 505.303 334.918 501.062C333.663 496.821 333.589 489.637 340.424 485.208C347.259 480.778 355.709 485.917 356.458 488.644C356.957 490.462 355.213 493.188 351.225 496.821Z" clip-rule="evenodd"/><path fill="url(#paint142_linear)" d="M331.609 500.968C332.32 497.527 334.077 495.806 336.88 495.806C341.083 495.806 345.362 502.977 339.298 507.723C335.255 510.888 332.692 508.636 331.609 500.968Z"/><path fill="url(#paint143_linear)" fill-rule="evenodd" d="M339.262 501.212L339.286 501.272C340.578 504.639 340.954 508.562 340.414 513.044C339.459 520.968 334.503 526.341 325.815 530.224C327.696 524.961 327.281 519.383 326.548 512.272C325.831 505.319 329.744 500.251 333.012 498.78L333.234 498.685C335.5 497.77 338.081 498.764 339.128 500.908L339.262 501.212Z" clip-rule="evenodd"/><path fill="url(#paint144_linear)" fill-rule="evenodd" d="M594.822 709.884C593.73 715.19 594.043 718.94 595.761 721.133C598.339 724.424 606.448 728.085 609.954 728.085C613.46 728.085 615.135 723.401 611.632 719.585C608.129 715.768 604.09 713.392 604.769 712.304C605.449 711.216 608.775 710.098 607.924 708.659C607.358 707.699 604.863 708.108 600.44 709.884H594.822Z" clip-rule="evenodd"/><path fill="url(#paint145_linear)" d="M535.135 840.362C533.287 842.509 532.364 845.1 532.364 848.137C532.364 852.691 534.435 856.462 540.607 856.462C546.779 856.462 567.157 847.766 568.637 844.064C569.624 841.596 561.453 840.03 544.125 839.367L535.135 840.362Z"/><path fill="url(#paint146_linear)" fill-rule="evenodd" d="M531.226 829.191C532.758 837.6 533.853 842.708 534.512 844.516C535.499 847.227 547.786 844.982 547.786 841.722C547.786 839.549 547.481 833.374 546.871 823.2L531.226 829.191Z" clip-rule="evenodd"/><path fill="url(#paint147_linear)" d="M491.996 817.464C491.996 819.661 491.996 821.866 491.996 824.077C491.996 827.394 497.922 828.307 500.874 825.597C503.826 822.888 505.46 812.727 505.46 809.863C505.46 806.999 499.541 807.447 497.198 809.863C495.635 811.474 493.902 814.008 491.996 817.464Z"/><path fill="url(#paint148_linear)" fill-rule="evenodd" d="M491.996 807.872C491.996 813.453 491.996 816.65 491.996 817.464C491.996 818.686 499.328 819.975 499.939 816.905C500.347 814.859 500.659 811.141 500.874 805.753L491.996 807.872Z" clip-rule="evenodd"/><path fill="url(#paint149_linear)" d="M494.064 691.355C491.39 711.67 490.054 732.528 490.054 753.93C490.054 786.033 490.146 805.745 491.102 809.158C492.059 812.572 500.549 811.889 501.766 809.158C502.984 806.428 507.001 768.298 512.193 746.879C516.689 769.128 520.527 796.066 522.962 812.263C525.397 828.46 526.844 833.334 533.204 833.334C539.565 833.334 545.623 830.275 547.444 827.153C548.659 825.071 546.639 786.607 541.387 711.762L494.064 691.355Z"/><path fill="#262626" fill-rule="evenodd" d="M505.463 729.339C508.52 734.081 510.764 739.928 512.194 746.88L511.884 748.185C506.842 769.811 502.961 806.484 501.768 809.16C501.253 810.314 499.439 811.102 497.443 811.37C501.543 799.926 505.463 762.465 505.463 729.339Z" clip-rule="evenodd" opacity=".447"/><path fill="url(#paint150_linear)" fill-rule="evenodd" d="M590.956 577.101C588.523 585.324 586.369 590.991 584.495 594.104C582.62 597.217 578.624 598.271 572.505 597.266V612.069H555.508L544.282 603.435L543.654 598.498C548.45 597.183 552.402 593.288 555.508 586.813C558.615 580.338 570.431 577.101 590.956 577.101Z" clip-rule="evenodd"/><path fill="#262626" fill-rule="evenodd" d="M572.505 600.925L564.92 596.035L572.505 597.268L572.505 600.925Z" clip-rule="evenodd" opacity=".1"/><path fill="url(#paint151_linear)" fill-rule="evenodd" d="M582.902 582.787C582.742 580.959 581.796 580.045 580.063 580.045C577.462 580.045 577.567 583.594 578.815 584.826C580.063 586.059 575.75 585.666 575.072 589.362C574.395 593.058 569.621 591.107 568.005 593.065C566.389 595.024 561.736 593.861 558.765 592.485C555.795 591.109 551.512 588.432 550.122 582.787C548.731 577.142 547.509 571.996 550.122 570.56C552.735 569.124 553.111 569.107 553.111 566.032C553.111 562.958 557.484 564.413 558.125 563.685C558.765 562.958 559.726 557.394 563.365 555.797C567.004 554.199 570.542 557.255 572.807 557.255C575.072 557.255 577.224 555.19 580.063 555.797C582.902 556.403 582.517 559.669 584.131 559.669C585.745 559.669 589.897 559.813 591.017 562.495C592.138 565.177 592.27 565.979 594.812 567.361C597.353 568.743 599.205 571.437 599.205 575.741C599.205 580.045 591.181 579.445 588.209 580.045C586.228 580.444 584.459 581.359 582.902 582.787Z" clip-rule="evenodd"/><path fill="url(#paint152_linear)" d="M545.539 595.295C550.963 601.791 555.947 605.93 560.49 607.714C567.303 610.389 568.407 608.076 573.895 609.232C579.383 610.389 587.335 624.304 590.955 638.079C594.574 651.854 600.012 685.301 601.988 711.312C599.87 713.107 596.752 713.54 592.634 712.608C578.799 679.414 570.762 660.394 568.523 655.549C560.49 663.175 545.131 689.894 544.125 700.603C543.12 711.312 544.125 712.544 544.125 715.543C544.125 718.542 527.672 721.442 508.423 713.822C489.174 706.201 490.539 693.277 493.727 688.077C496.916 682.877 495.571 664.348 506.254 633.043C513.377 612.173 526.471 599.591 545.539 595.295Z"/><path fill="#262626" fill-rule="evenodd" d="M560.757 635.627L568.522 655.55C560.489 663.175 545.13 689.895 544.124 700.604L544.014 701.832C543.728 705.19 543.656 707.525 543.683 709.265C537.433 690.207 547.784 650.793 560.757 635.627Z" clip-rule="evenodd" opacity=".1"/><path fill="#262626" fill-rule="evenodd" d="M564.594 645.377L568.522 655.55C560.489 663.175 545.13 689.895 544.124 700.604L544.014 701.832C543.728 705.19 543.656 707.525 543.683 709.265C537.433 690.207 551.621 660.543 564.594 645.377Z" clip-rule="evenodd" opacity=".1"/><path fill="url(#paint153_linear)" fill-rule="evenodd" d="M465.743 569.375C463.421 563.69 462.26 559.714 462.26 557.445C462.26 554.042 462.417 551.576 461.438 549.497C460.786 548.112 459.046 546.86 456.219 545.742L450.557 553.364C451.51 555.91 452.897 558.059 454.718 559.811C456.539 561.563 458.061 567.252 459.284 576.877L465.743 569.375Z" clip-rule="evenodd"/><path fill="url(#paint154_linear)" d="M437.77 769.459C437.158 770.956 436.852 773.239 436.852 776.31C436.852 780.915 443.757 782.558 456.085 780.079C468.412 777.6 472.555 773.442 471.157 770.369C470.224 768.32 462.723 766.866 448.653 766.006L437.77 769.459Z"/><path fill="url(#paint155_linear)" fill-rule="evenodd" d="M435.198 751.874C436.444 761.643 437.301 767.505 437.77 769.458C438.472 772.387 448.418 772.733 450.083 770.263C451.194 768.617 451.834 762.746 452.005 752.65L435.198 751.874Z" clip-rule="evenodd"/><path fill="url(#paint156_linear)" d="M410.042 751.317C409.476 752.594 409.047 754.509 408.757 757.063C408.321 760.893 415.004 762.543 418.365 759.267C421.726 755.99 424.089 747.438 423.206 744.296C422.617 742.202 420.236 742.202 416.064 744.296L410.042 751.317Z"/><path fill="url(#paint157_linear)" fill-rule="evenodd" d="M410.04 741.83C410.04 746.645 410.04 749.808 410.04 751.318C410.04 753.584 416.91 754.472 417.348 751.318C417.639 749.216 417.978 745.379 418.363 739.808L410.04 741.83Z" clip-rule="evenodd"/><path fill="url(#paint158_linear)" d="M409.883 652.293C409.13 691.625 408.754 716.848 408.754 727.963C408.754 744.635 409.297 742.628 411.113 744.46C412.93 746.293 418.178 745.702 419.197 742.057C419.876 739.628 423.388 721.798 429.734 688.568C430.651 713.489 431.378 730.7 431.912 740.201C432.714 754.452 433.607 757.997 440.495 760.235C447.384 762.473 452.687 758.775 453.813 752.771C454.564 748.769 456.149 718.289 458.568 661.331L425.205 633.034L417.768 634.353L409.883 652.293Z"/><path fill="#262626" fill-rule="evenodd" d="M415.456 745.312L415.226 745.356L416.37 735.446C421.323 693.242 424.771 673.411 426.715 675.955C428.931 678.854 429.938 683.058 429.736 688.568L423.984 718.468C421.228 732.639 419.633 740.502 419.198 742.057C418.689 743.879 417.123 744.938 415.456 745.312Z" clip-rule="evenodd" opacity=".447"/><path fill="url(#paint159_linear)" fill-rule="evenodd" d="M456.606 529.609C457.865 535.752 458.494 541.204 458.494 545.964C458.494 553.106 455.953 554.225 453.222 554.713C451.401 555.038 449.591 555.337 447.791 555.61L449.407 572.215L437.331 576.03L429.438 570.389C432.758 562.294 434.417 555.011 434.417 548.541C434.417 542.071 439.743 534.8 450.394 526.727L456.606 529.609Z" clip-rule="evenodd"/><path fill="#262626" fill-rule="evenodd" d="M447.791 555.612L448.303 560.885L441.299 555.612H447.791Z" clip-rule="evenodd" opacity=".1"/><path fill="url(#paint160_linear)" fill-rule="evenodd" d="M449.324 538.748C448.503 536.795 447.266 535.818 445.614 535.818C443.135 535.818 443.44 539.416 446.072 541.866C448.703 544.315 445.126 548.859 439.552 551.372C433.978 553.885 432.97 552.787 431.141 546.127C429.312 539.468 428.968 530.134 436.118 525.284C443.269 520.434 453.217 523.678 455.361 525.284C457.506 526.89 461.437 525.335 461.437 527.761C461.437 529.378 457.399 533.04 449.324 538.748Z" clip-rule="evenodd"/><path fill="url(#paint161_linear)" d="M414.41 610.343C408.265 608.698 406.448 601.082 407.581 595.527L416.419 596.491C416.419 596.947 414.86 599.737 414.41 610.343Z"/><path fill="#262626" d="M416.355 610.819C410.21 609.175 408.393 601.559 409.526 596.004L418.364 596.968C418.364 597.423 416.805 600.213 416.355 610.819Z" opacity=".1"/><path fill="url(#paint162_linear)" d="M448.828 568.799C450.919 569.457 453.053 571.868 455.23 576.031C461.979 604.807 458.479 635.807 458.479 661.307C426.479 671.307 409.479 654.001 409.479 651.307C409.479 645.865 411.892 617.332 413.479 597.807C413.479 597.807 408.979 597.807 406.479 595.807C409.479 581.807 417.116 571.097 420.004 567.418C422.891 563.738 428.182 561.773 431.723 565.286C434.084 567.628 439.786 568.799 448.828 568.799Z"/><path fill="#262626" fill-rule="evenodd" d="M415.48 584.307L413.48 597.807C413.48 597.807 411.37 598.159 409.37 597.159L415.48 584.307Z" clip-rule="evenodd" opacity=".1"/><path fill="#262626" fill-rule="evenodd" d="M448.977 582.438L457.174 586.509C458.25 599.087 458.136 619.028 459.039 631.157C459.359 635.451 459.833 639.93 460.461 644.594C453.551 630.755 449.734 610.483 449.01 583.778L448.977 582.438Z" clip-rule="evenodd" opacity=".1"/><path fill="url(#paint163_linear)" d="M449.479 583.807C451.207 589.994 457.08 613.565 464.727 617.528C472.373 621.49 474.979 616.337 474.979 605.307C474.979 597.953 474.251 587.607 464.979 567.807L458.479 569.807L459.979 580.307L449.479 583.807Z"/><path fill="url(#paint164_linear)" d="M448.827 568.801C446.523 574.773 445.948 579.822 447.099 583.947C448.27 588.138 451.093 595.927 452.506 599.307C452.506 599.307 464.979 601.807 468.979 593.807C467.635 587.535 460.479 565.807 448.827 568.801Z"/><path fill="#262626" fill-rule="evenodd" d="M470.831 602.322C468.742 593.512 467.528 583.046 458.624 572.244C458.45 570.559 456.766 563.793 456.766 563.793C467.919 572.281 469.824 588.869 470.831 602.322Z" clip-rule="evenodd" opacity=".1"/><defs><filter id="filter0_d" width="102" height="115" x="1599" y="398.198" color-interpolation-filters="sRGB" filterUnits="userSpaceOnUse"><feFlood flood-opacity="0" result="BackgroundImageFix"/><feColorMatrix in="SourceAlpha" type="matrix" values="0 0 0 0 0 0 0 0 0 0 0 0 0 0 0 0 0 0 127 0"/><feOffset dy="4"/><feGaussianBlur stdDeviation="8.5"/><feColorMatrix type="matrix" values="0 0 0 0 0 0 0 0 0 0 0 0 0 0 0 0 0 0 0.25 0"/><feBlend in2="BackgroundImageFix" mode="normal" result="effect1_dropShadow"/><feBlend in="SourceGraphic" in2="effect1_dropShadow" mode="normal" result="shape"/></filter><filter id="filter1_d" width="110.221" height="110.221" x="1595.89" y="214.849" color-interpolation-filters="sRGB" filterUnits="userSpaceOnUse"><feFlood flood-opacity="0" result="BackgroundImageFix"/><feColorMatrix in="SourceAlpha" type="matrix" values="0 0 0 0 0 0 0 0 0 0 0 0 0 0 0 0 0 0 127 0"/><feOffset dy="5.031"/><feGaussianBlur stdDeviation="10.69"/><feColorMatrix type="matrix" values="0 0 0 0 0 0 0 0 0 0 0 0 0 0 0 0 0 0 0.25 0"/><feBlend in2="BackgroundImageFix" mode="normal" result="effect1_dropShadow"/><feBlend in="SourceGraphic" in2="effect1_dropShadow" mode="normal" result="shape"/></filter><filter id="filter2_d" width="123.5" height="112.5" x="1496" y="482.699" color-interpolation-filters="sRGB" filterUnits="userSpaceOnUse"><feFlood flood-opacity="0" result="BackgroundImageFix"/><feColorMatrix in="SourceAlpha" type="matrix" values="0 0 0 0 0 0 0 0 0 0 0 0 0 0 0 0 0 0 127 0"/><feOffset dy="4"/><feGaussianBlur stdDeviation="8.5"/><feColorMatrix type="matrix" values="0 0 0 0 0 0 0 0 0 0 0 0 0 0 0 0 0 0 0.25 0"/><feBlend in2="BackgroundImageFix" mode="normal" result="effect1_dropShadow"/><feBlend in="SourceGraphic" in2="effect1_dropShadow" mode="normal" result="shape"/></filter><filter id="filter3_d" width="123.5" height="112.5" x="1682" y="482.699" color-interpolation-filters="sRGB" filterUnits="userSpaceOnUse"><feFlood flood-opacity="0" result="BackgroundImageFix"/><feColorMatrix in="SourceAlpha" type="matrix" values="0 0 0 0 0 0 0 0 0 0 0 0 0 0 0 0 0 0 127 0"/><feOffset dy="4"/><feGaussianBlur stdDeviation="8.5"/><feColorMatrix type="matrix" values="0 0 0 0 0 0 0 0 0 0 0 0 0 0 0 0 0 0 0.25 0"/><feBlend in2="BackgroundImageFix" mode="normal" result="effect1_dropShadow"/><feBlend in="SourceGraphic" in2="effect1_dropShadow" mode="normal" result="shape"/></filter><linearGradient id="paint0_linear" x1="769" x2="769" y1="561" y2="879.122" gradientUnits="userSpaceOnUse"><stop stop-color="#172B30"/><stop offset=".999" stop-color="#161616" stop-opacity="0"/></linearGradient><linearGradient id="paint1_linear" x1="276.932" x2="749.688" y1="673.815" y2="15.506" gradientUnits="userSpaceOnUse"><stop stop-color="#6887B3" stop-opacity=".48"/><stop offset=".51" stop-color="#098599" stop-opacity=".25"/><stop offset="1" stop-color="#00E8FF" stop-opacity=".49"/></linearGradient><linearGradient id="paint2_linear" x1="1735.09" x2="1811.68" y1="143.021" y2="604.613" gradientUnits="userSpaceOnUse"><stop stop-color="#0F7E98"/><stop offset="1" stop-color="#106E74"/></linearGradient><linearGradient id="paint3_linear" x1="1488.89" x2="1525.74" y1="579.847" y2="700.49" gradientUnits="userSpaceOnUse"><stop stop-color="#5DF1D7"/><stop offset="1" stop-color="#0C7E8F"/></linearGradient><linearGradient id="paint4_linear" x1="1863.87" x2="1863.86" y1="578.168" y2="591.632" gradientUnits="userSpaceOnUse"><stop stop-color="#103A30" stop-opacity=".7"/><stop offset="1" stop-color="#0A1520" stop-opacity="0"/></linearGradient><linearGradient id="paint5_linear" x1="1598.75" x2="1691.8" y1="181.494" y2="173.364" gradientUnits="userSpaceOnUse"><stop stop-color="#5DF1D7"/><stop offset="1" stop-color="#128698"/></linearGradient><linearGradient id="paint6_linear" x1="1598.75" x2="1691.8" y1="181.494" y2="173.364" gradientUnits="userSpaceOnUse"><stop stop-color="#5DF1D7"/><stop offset="1" stop-color="#128698"/></linearGradient><linearGradient id="paint7_linear" x1="1579" x2="1699.54" y1="113.699" y2="138.674" gradientUnits="userSpaceOnUse"><stop stop-color="#38C48E"/><stop offset="1" stop-color="#0C2F2E"/></linearGradient><linearGradient id="paint8_linear" x1="1579" x2="1699.54" y1="141.699" y2="166.674" gradientUnits="userSpaceOnUse"><stop stop-color="#38C48E"/><stop offset="1" stop-color="#0C2F2E"/></linearGradient><linearGradient id="paint9_linear" x1="1596.75" x2="1785.26" y1="543.513" y2="545.106" gradientUnits="userSpaceOnUse"><stop stop-color="#165B7A"/><stop offset="1" stop-color="#3E516B"/></linearGradient><linearGradient id="paint10_linear" x1="1573.48" x2="1607.44" y1="442.218" y2="525.503" gradientUnits="userSpaceOnUse"><stop stop-color="#CEFFDD"/><stop offset="1" stop-color="#B2FFF9"/></linearGradient><linearGradient id="paint11_linear" x1="1512.78" x2="1649.1" y1="304.133" y2="584.087" gradientUnits="userSpaceOnUse"><stop stop-color="#CEFFDD"/><stop offset="1" stop-color="#B2FFF9"/></linearGradient><linearGradient id="paint12_linear" x1="1715.98" x2="1699.99" y1="126.584" y2="486.787" gradientUnits="userSpaceOnUse"><stop stop-color="#103A30" stop-opacity=".7"/><stop offset="1" stop-color="#0A1520" stop-opacity="0"/></linearGradient><linearGradient id="paint13_linear" x1="1738.81" x2="1722.82" y1="126.584" y2="486.786" gradientUnits="userSpaceOnUse"><stop stop-color="#103A30" stop-opacity=".7"/><stop offset="1" stop-color="#0A1520" stop-opacity="0"/></linearGradient><linearGradient id="paint14_linear" x1="1678.26" x2="1404.26" y1="136.385" y2="382.618" gradientUnits="userSpaceOnUse"><stop stop-color="#CEFFDD"/><stop offset="1" stop-color="#B2FFF9"/></linearGradient><linearGradient id="paint15_linear" x1="1629.02" x2="1702.66" y1="507.423" y2="508.195" gradientUnits="userSpaceOnUse"><stop stop-color="#07364A"/><stop offset="1" stop-color="#3E516B"/></linearGradient><linearGradient id="paint16_linear" x1="1638.38" x2="1637.56" y1="342.087" y2="386.722" gradientUnits="userSpaceOnUse"><stop stop-color="#A9FEFF"/><stop offset="1" stop-color="#9EFFFE"/></linearGradient><linearGradient id="paint17_linear" x1="1638.38" x2="1637.56" y1="342.087" y2="386.722" gradientUnits="userSpaceOnUse"><stop stop-color="#A9FEFF"/><stop offset="1" stop-color="#9EFFFE"/></linearGradient><linearGradient id="paint18_linear" x1="1575.09" x2="1599.88" y1="257.032" y2="329.443" gradientUnits="userSpaceOnUse"><stop stop-color="#CEFFDD"/><stop offset="1" stop-color="#B2FFF9"/></linearGradient><linearGradient id="paint19_linear" x1="1632.42" x2="1697.64" y1="300.907" y2="301.803" gradientUnits="userSpaceOnUse"><stop stop-color="#07364A"/><stop offset="1" stop-color="#3E516B"/></linearGradient><linearGradient id="paint20_linear" x1="1650.86" x2="1652.78" y1="249.527" y2="262.458" gradientUnits="userSpaceOnUse"><stop stop-color="#CEFFDD"/><stop offset="1" stop-color="#B2FFF9"/></linearGradient><linearGradient id="paint21_linear" x1="1605.75" x2="1691.91" y1="554.844" y2="549.195" gradientUnits="userSpaceOnUse"><stop stop-color="#B8FFF2"/><stop offset="1" stop-color="#53D9EE"/></linearGradient><linearGradient id="paint22_linear" x1="1606.17" x2="1692.06" y1="554.781" y2="549.198" gradientUnits="userSpaceOnUse"><stop stop-color="#B8FFF2"/><stop offset="1" stop-color="#007688"/></linearGradient><linearGradient id="paint23_linear" x1="1607.56" x2="1687.91" y1="554.142" y2="584.235" gradientUnits="userSpaceOnUse"><stop stop-color="#165B7A"/><stop offset="1" stop-color="#001431"/></linearGradient><linearGradient id="paint24_linear" x1="1630.96" x2="1671.23" y1="554.142" y2="560.961" gradientUnits="userSpaceOnUse"><stop stop-color="#165B7A"/><stop offset="1" stop-color="#001431"/></linearGradient><linearGradient id="paint25_linear" x1="1579.1" x2="1619.46" y1="515.706" y2="583.151" gradientUnits="userSpaceOnUse"><stop stop-color="#165B7A"/><stop offset="1" stop-color="#001431"/></linearGradient><linearGradient id="paint26_linear" x1="1518.71" x2="1613.41" y1="452.058" y2="458.971" gradientUnits="userSpaceOnUse"><stop stop-color="#5DF1D7"/><stop offset="1" stop-color="#0C7E8F"/></linearGradient><linearGradient id="paint27_linear" x1="1600.5" x2="1604.86" y1="396.199" y2="550.496" gradientUnits="userSpaceOnUse"><stop stop-color="#9BEEDF"/><stop offset="1" stop-color="#7ADCCE"/></linearGradient><linearGradient id="paint28_linear" x1="1591" x2="1654.66" y1="422.699" y2="481.635" gradientUnits="userSpaceOnUse"><stop stop-color="#6DFAE1"/><stop offset="1" stop-color="#0C7E8F"/></linearGradient><linearGradient id="paint29_linear" x1="1457.04" x2="1482.97" y1="525.761" y2="612.113" gradientUnits="userSpaceOnUse"><stop stop-color="#CEFFDD"/><stop offset="1" stop-color="#B2FFF9"/></linearGradient><linearGradient id="paint30_linear" x1="1614.6" x2="1611.31" y1="404.126" y2="512.534" gradientUnits="userSpaceOnUse"><stop stop-color="#fff" stop-opacity=".7"/><stop offset="1" stop-color="#fff" stop-opacity="0"/></linearGradient><linearGradient id="paint31_linear" x1="1621.6" x2="1618.31" y1="404.126" y2="512.534" gradientUnits="userSpaceOnUse"><stop stop-color="#fff" stop-opacity=".7"/><stop offset="1" stop-color="#fff" stop-opacity="0"/></linearGradient><linearGradient id="paint32_linear" x1="1782.79" x2="1688.09" y1="452.058" y2="458.971" gradientUnits="userSpaceOnUse"><stop stop-color="#5DF1D7"/><stop offset="1" stop-color="#0C7E8F"/></linearGradient><linearGradient id="paint33_linear" x1="1782.79" x2="1688.09" y1="452.058" y2="458.971" gradientUnits="userSpaceOnUse"><stop stop-color="#15ABA0"/><stop offset="1" stop-color="#0C7E8F"/></linearGradient><linearGradient id="paint34_linear" x1="1767.79" x2="1673.09" y1="459.058" y2="465.971" gradientUnits="userSpaceOnUse"><stop stop-color="#15927C"/><stop offset="1" stop-color="#0C7E8F"/></linearGradient><linearGradient id="paint35_linear" x1="1844.46" x2="1818.53" y1="525.761" y2="612.113" gradientUnits="userSpaceOnUse"><stop stop-color="#CEFFDD"/><stop offset="1" stop-color="#B2FFF9"/></linearGradient><linearGradient id="paint36_linear" x1="30.604" x2="27.314" y1="23.927" y2="132.335" gradientUnits="userSpaceOnUse"><stop stop-color="#103A30" stop-opacity=".7"/><stop offset="1" stop-color="#0A1520" stop-opacity="0"/></linearGradient><linearGradient id="paint37_linear" x1="30.604" x2="27.314" y1="23.927" y2="132.335" gradientUnits="userSpaceOnUse"><stop stop-color="#103A30" stop-opacity=".7"/><stop offset="1" stop-color="#0A1520" stop-opacity="0"/></linearGradient><linearGradient id="paint38_linear" x1="30.604" x2="27.314" y1="23.927" y2="132.335" gradientUnits="userSpaceOnUse"><stop stop-color="#103A30" stop-opacity=".7"/><stop offset="1" stop-color="#0A1520" stop-opacity="0"/></linearGradient><linearGradient id="paint39_linear" x1="1584.44" x2="1707" y1="504.986" y2="518.352" gradientUnits="userSpaceOnUse"><stop stop-color="#77CEFF"/><stop offset="1" stop-color="#107CB8"/></linearGradient><linearGradient id="paint40_linear" x1="1657.38" x2="1731.02" y1="512.346" y2="515.903" gradientUnits="userSpaceOnUse"><stop stop-color="#07364A"/><stop offset="1" stop-color="#3E516B"/></linearGradient><linearGradient id="paint41_linear" x1="1552.64" x2="1619.91" y1="597.134" y2="574.961" gradientUnits="userSpaceOnUse"><stop stop-color="#0B878E"/><stop offset="1" stop-color="#0C5860"/></linearGradient><linearGradient id="paint42_linear" x1="1639.01" x2="1724.44" y1="594.225" y2="524.866" gradientUnits="userSpaceOnUse"><stop stop-color="#004A54"/><stop offset="1" stop-color="#97F5FF"/></linearGradient><linearGradient id="paint43_linear" x1="1661" x2="1784.4" y1="591.575" y2="505.022" gradientUnits="userSpaceOnUse"><stop stop-color="#003138"/><stop offset="1" stop-color="#97F5FF"/></linearGradient><linearGradient id="paint44_linear" x1="1544.73" x2="1522.06" y1="578.678" y2="592.531" gradientUnits="userSpaceOnUse"><stop stop-color="#20C9E0"/><stop offset="1" stop-color="#97F5FF"/></linearGradient><linearGradient id="paint45_linear" x1="1518.97" x2="1538.66" y1="592.765" y2="615.432" gradientUnits="userSpaceOnUse"><stop stop-color="#1D6B7D"/><stop offset="1" stop-color="#123635"/></linearGradient><linearGradient id="paint46_linear" x1="1575.83" x2="1523.94" y1="581.492" y2="578.4" gradientUnits="userSpaceOnUse"><stop stop-color="#1E8493"/><stop offset="1" stop-color="#5EEFFF"/></linearGradient><linearGradient id="paint47_linear" x1="1584.01" x2="1606.27" y1="598.397" y2="575.22" gradientUnits="userSpaceOnUse"><stop stop-color="#004A54"/><stop offset="1" stop-color="#97F5FF"/></linearGradient><linearGradient id="paint48_linear" x1="1582.25" x2="1530.36" y1="563.662" y2="560.569" gradientUnits="userSpaceOnUse"><stop stop-color="#1E8493"/><stop offset="1" stop-color="#5EEFFF"/></linearGradient><linearGradient id="paint49_linear" x1="1591.23" x2="1613.42" y1="580.567" y2="556.304" gradientUnits="userSpaceOnUse"><stop stop-color="#004A54"/><stop offset="1" stop-color="#97F5FF"/></linearGradient><linearGradient id="paint50_linear" x1="1587.24" x2="1535.35" y1="545.831" y2="542.739" gradientUnits="userSpaceOnUse"><stop stop-color="#1E8493"/><stop offset="1" stop-color="#5EEFFF"/></linearGradient><linearGradient id="paint51_linear" x1="1596.32" x2="1618.51" y1="562.736" y2="538.37" gradientUnits="userSpaceOnUse"><stop stop-color="#004A54"/><stop offset="1" stop-color="#97F5FF"/></linearGradient><linearGradient id="paint52_linear" x1="1592.94" x2="1541.05" y1="528" y2="524.908" gradientUnits="userSpaceOnUse"><stop stop-color="#1E8493"/><stop offset="1" stop-color="#5EEFFF"/></linearGradient><linearGradient id="paint53_linear" x1="1603.83" x2="1551.94" y1="510" y2="506.908" gradientUnits="userSpaceOnUse"><stop stop-color="#1E8493"/><stop offset="1" stop-color="#5EEFFF"/></linearGradient><linearGradient id="paint54_linear" x1="1611.71" x2="1564.31" y1="492" y2="489.373" gradientUnits="userSpaceOnUse"><stop stop-color="#1E8493"/><stop offset="1" stop-color="#5EEFFF"/></linearGradient><linearGradient id="paint55_linear" x1="1600.73" x2="1623.01" y1="544.905" y2="523.005" gradientUnits="userSpaceOnUse"><stop stop-color="#004A54"/><stop offset="1" stop-color="#97F5FF"/></linearGradient><linearGradient id="paint56_linear" x1="1610.61" x2="1632.89" y1="526.905" y2="505.005" gradientUnits="userSpaceOnUse"><stop stop-color="#004A54"/><stop offset="1" stop-color="#97F5FF"/></linearGradient><linearGradient id="paint57_linear" x1="1619.5" x2="1641.78" y1="508.905" y2="487.005" gradientUnits="userSpaceOnUse"><stop stop-color="#004A54"/><stop offset="1" stop-color="#97F5FF"/></linearGradient><linearGradient id="paint58_linear" x1="1572.61" x2="1549.94" y1="578.678" y2="592.531" gradientUnits="userSpaceOnUse"><stop stop-color="#20C9E0"/><stop offset="1" stop-color="#97F5FF"/></linearGradient><linearGradient id="paint59_linear" x1="1546.85" x2="1566.54" y1="592.765" y2="615.432" gradientUnits="userSpaceOnUse"><stop stop-color="#1D6B7D"/><stop offset="1" stop-color="#123635"/></linearGradient><linearGradient id="paint60_linear" x1="1579.4" x2="1573.07" y1="590.85" y2="594.719" gradientUnits="userSpaceOnUse"><stop stop-color="#042635"/><stop offset="1" stop-color="#001431"/></linearGradient><linearGradient id="paint61_linear" x1="1595.95" x2="1573.29" y1="578.678" y2="592.531" gradientUnits="userSpaceOnUse"><stop stop-color="#20C9E0"/><stop offset="1" stop-color="#97F5FF"/></linearGradient><linearGradient id="paint62_linear" x1="1570.19" x2="1589.88" y1="592.765" y2="615.432" gradientUnits="userSpaceOnUse"><stop stop-color="#1D6B7D"/><stop offset="1" stop-color="#123635"/></linearGradient><linearGradient id="paint63_linear" x1="1602.74" x2="1596.41" y1="590.85" y2="594.719" gradientUnits="userSpaceOnUse"><stop stop-color="#042635"/><stop offset="1" stop-color="#001431"/></linearGradient><linearGradient id="paint64_linear" x1="1431.8" x2="1472.02" y1="578.244" y2="577.269" gradientUnits="userSpaceOnUse"><stop stop-color="#25A0B3"/><stop offset="1" stop-color="#34D7E8"/></linearGradient><linearGradient id="paint65_linear" x1="1421.42" x2="1448.49" y1="670.183" y2="616.56" gradientUnits="userSpaceOnUse"><stop stop-color="#2BB6C4"/><stop offset=".85" stop-color="#259EB1"/><stop offset="1" stop-color="#2290A1"/></linearGradient><linearGradient id="paint66_linear" x1="1457.13" x2="1501.46" y1="586.661" y2="585.29" gradientUnits="userSpaceOnUse"><stop stop-color="#25A0B3"/><stop offset="1" stop-color="#34D7E8"/></linearGradient><linearGradient id="paint67_linear" x1="1446.42" x2="1473.49" y1="671.183" y2="617.56" gradientUnits="userSpaceOnUse"><stop stop-color="#2BB6C4"/><stop offset=".85" stop-color="#259EB1"/><stop offset="1" stop-color="#2290A1"/></linearGradient><linearGradient id="paint68_linear" x1="1406.22" x2="1477.42" y1="498.099" y2="550.458" gradientUnits="userSpaceOnUse"><stop stop-color="#A0F6FF"/><stop offset="1" stop-color="#25A0B3"/></linearGradient><linearGradient id="paint69_linear" x1="1441.33" x2="1472.31" y1="515.612" y2="542.409" gradientUnits="userSpaceOnUse"><stop stop-color="#042635"/><stop offset="1" stop-color="#001431"/></linearGradient><linearGradient id="paint70_linear" x1="-7.381" x2="-7.381" y1="-10.1" y2="10.405" gradientUnits="userSpaceOnUse"><stop stop-color="#00A5FF"/><stop offset="1" stop-color="#0F38CD"/></linearGradient><linearGradient id="paint71_linear" x1="-34.071" x2="14.672" y1="56.925" y2="56.925" gradientUnits="userSpaceOnUse"><stop stop-color="#77CEFF"/><stop offset=".854" stop-color="#20B0FF"/><stop offset="1" stop-color="#1070A5"/></linearGradient><linearGradient id="paint72_linear" x1="1540.33" x2="1509.18" y1="579.584" y2="605.553" gradientUnits="userSpaceOnUse"><stop stop-color="#00A5FF"/><stop offset="1" stop-color="#0F38CD"/></linearGradient><linearGradient id="paint73_linear" x1="1422.06" x2="1528.08" y1="542.803" y2="537.459" gradientUnits="userSpaceOnUse"><stop stop-color="#1CC9E3"/><stop offset="1" stop-color="#34D7E8"/></linearGradient><linearGradient id="paint74_linear" x1="1507.03" x2="1459.39" y1="694.471" y2="675.071" gradientUnits="userSpaceOnUse"><stop stop-color="#34D7E8"/><stop offset=".85" stop-color="#259EB1"/><stop offset="1" stop-color="#25A0B3"/></linearGradient><linearGradient id="paint75_linear" x1="1474.04" x2="1507.18" y1="560.562" y2="590.426" gradientUnits="userSpaceOnUse"><stop stop-color="#165B7A"/><stop offset="1" stop-color="#001431"/></linearGradient><linearGradient id="paint76_linear" x1="1503.26" x2="1503.26" y1="479.457" y2="558.903" gradientUnits="userSpaceOnUse"><stop stop-color="#9CF6FF"/><stop offset="1" stop-color="#2BC3DB"/></linearGradient><linearGradient id="paint77_linear" x1="1515.05" x2="1495.14" y1="536.151" y2="485.422" gradientUnits="userSpaceOnUse"><stop stop-color="#34D7E8"/><stop offset=".85" stop-color="#259EB1"/><stop offset="1" stop-color="#25A0B3"/></linearGradient><linearGradient id="paint78_linear" x1="1498.05" x2="1410.67" y1="549.81" y2="587.03" gradientUnits="userSpaceOnUse"><stop stop-color="#165B7A"/><stop offset="1" stop-color="#001431"/></linearGradient><linearGradient id="paint79_linear" x1="-2.438" x2="17.421" y1="44.33" y2="31.018" gradientUnits="userSpaceOnUse"><stop stop-color="#34D7E8"/><stop offset=".85" stop-color="#259EB1"/><stop offset="1" stop-color="#25A0B3"/></linearGradient><linearGradient id="paint80_linear" x1="-14.546" x2="22.163" y1="32.179" y2="36.133" gradientUnits="userSpaceOnUse"><stop stop-color="#B1F5FF"/><stop offset="1" stop-color="#34D7E8"/></linearGradient><linearGradient id="paint81_linear" x1="1491.81" x2="1482.37" y1="537.472" y2="533.534" gradientUnits="userSpaceOnUse"><stop stop-color="#34D7E8"/><stop offset=".85" stop-color="#259EB1"/><stop offset="1" stop-color="#25A0B3"/></linearGradient><linearGradient id="paint82_linear" x1="1479.75" x2="1539.23" y1="508.994" y2="530.007" gradientUnits="userSpaceOnUse"><stop stop-color="#74F2FF"/><stop offset="1" stop-color="#39D9F2"/></linearGradient><linearGradient id="paint83_linear" x1="1481.92" x2="1483.29" y1="552.864" y2="571.182" gradientUnits="userSpaceOnUse"><stop stop-color="#042635"/><stop offset="1" stop-color="#06565B"/></linearGradient><linearGradient id="paint84_linear" x1="1494.23" x2="1495.06" y1="541.128" y2="565.337" gradientUnits="userSpaceOnUse"><stop stop-color="#5DF1D7"/><stop offset="1" stop-color="#021F24"/></linearGradient><linearGradient id="paint85_linear" x1="1484.31" x2="1485.34" y1="544.376" y2="568.315" gradientUnits="userSpaceOnUse"><stop stop-color="#5DF1D7"/><stop offset="1" stop-color="#021F24"/></linearGradient><linearGradient id="paint86_linear" x1="1470.4" x2="1474.38" y1="542.745" y2="572.48" gradientUnits="userSpaceOnUse"><stop stop-color="#5DF1D7"/><stop offset="1" stop-color="#021F24"/></linearGradient><linearGradient id="paint87_linear" x1="1459.84" x2="1463.96" y1="540.442" y2="572.87" gradientUnits="userSpaceOnUse"><stop stop-color="#5DF1D7"/><stop offset="1" stop-color="#021F24"/></linearGradient><linearGradient id="paint88_linear" x1="1449.76" x2="1453.01" y1="541.431" y2="570.19" gradientUnits="userSpaceOnUse"><stop stop-color="#5DF1D7"/><stop offset="1" stop-color="#021F24"/></linearGradient><linearGradient id="paint89_linear" x1="1442.39" x2="1443.66" y1="538.121" y2="565.775" gradientUnits="userSpaceOnUse"><stop stop-color="#5DF1D7"/><stop offset="1" stop-color="#021F24"/></linearGradient><linearGradient id="paint90_linear" x1="1492.22" x2="1492.59" y1="541.489" y2="542.834" gradientUnits="userSpaceOnUse"><stop stop-color="#042635"/><stop offset="1" stop-color="#06565B"/></linearGradient><linearGradient id="paint91_linear" x1="1489.36" x2="1489.73" y1="544.352" y2="545.696" gradientUnits="userSpaceOnUse"><stop stop-color="#042635"/><stop offset="1" stop-color="#06565B"/></linearGradient><linearGradient id="paint92_linear" x1="1486.5" x2="1486.87" y1="546.5" y2="547.844" gradientUnits="userSpaceOnUse"><stop stop-color="#042635"/><stop offset="1" stop-color="#06565B"/></linearGradient><linearGradient id="paint93_linear" x1="1494.53" x2="1496.96" y1="561.876" y2="577.626" gradientUnits="userSpaceOnUse"><stop stop-color="#042635"/><stop offset="1" stop-color="#06565B"/></linearGradient><linearGradient id="paint94_linear" x1="-232.521" x2="311.286" y1="883.351" y2="715.389" gradientUnits="userSpaceOnUse"><stop stop-color="#6887B3" stop-opacity=".48"/><stop offset=".51" stop-color="#098599" stop-opacity=".25"/><stop offset="1" stop-color="#00E8FF" stop-opacity=".49"/></linearGradient><linearGradient id="paint95_linear" x1="-332.101" x2="373.238" y1="947.147" y2="687.109" gradientUnits="userSpaceOnUse"><stop stop-color="#121E2F" stop-opacity="0"/><stop offset="1" stop-color="#00E8FF"/></linearGradient><linearGradient id="paint96_linear" x1="-203.036" x2="387.629" y1="839.471" y2="688.415" gradientUnits="userSpaceOnUse"><stop stop-color="#121E2F" stop-opacity="0"/><stop offset=".575" stop-color="#0892A7" stop-opacity=".575"/><stop offset="1" stop-color="#00E8FF" stop-opacity=".63"/></linearGradient><linearGradient id="paint97_linear" x1="-267.57" x2="330.151" y1="770.591" y2="694.988" gradientUnits="userSpaceOnUse"><stop stop-color="#74DAA9" stop-opacity=".5"/><stop offset=".455" stop-color="#21AFC8" stop-opacity=".455"/><stop offset="1" stop-color="#00E8FF" stop-opacity=".28"/></linearGradient><linearGradient id="paint98_linear" x1="820.004" x2="713.749" y1="685.414" y2="876.39" gradientUnits="userSpaceOnUse"><stop stop-color="#5CDEAC"/><stop offset="1" stop-color="#123635"/></linearGradient><linearGradient id="paint99_linear" x1="929.699" x2="541.084" y1="-163.517" y2="863.516" gradientUnits="userSpaceOnUse"><stop stop-color="#5CDEAC"/><stop offset="1" stop-color="#123635"/></linearGradient><linearGradient id="paint100_linear" x1="482.75" x2="449.71" y1="573.797" y2="753.659" gradientUnits="userSpaceOnUse"><stop stop-color="#5CDEAC"/><stop offset="1" stop-color="#123635"/></linearGradient><linearGradient id="paint101_linear" x1="311.296" x2="314.452" y1="540.714" y2="549.599" gradientUnits="userSpaceOnUse"><stop stop-color="#CEFFDD"/><stop offset="1" stop-color="#B2FFF9"/></linearGradient><linearGradient id="paint102_linear" x1="491.349" x2="477.242" y1="547.468" y2="579.156" gradientUnits="userSpaceOnUse"><stop stop-color="#CEFFDD"/><stop offset="1" stop-color="#B2FFF9" stop-opacity="0"/></linearGradient><linearGradient id="paint103_linear" x1="463.997" x2="468.983" y1="543.513" y2="573.01" gradientUnits="userSpaceOnUse"><stop stop-color="#066A81"/><stop offset="1" stop-color="#12E2EF"/></linearGradient><linearGradient id="paint104_linear" x1="468.559" x2="473.545" y1="531.549" y2="561.046" gradientUnits="userSpaceOnUse"><stop stop-color="#066A81"/><stop offset="1" stop-color="#12E2EF"/></linearGradient><linearGradient id="paint105_linear" x1="479.204" x2="484.19" y1="525.567" y2="555.064" gradientUnits="userSpaceOnUse"><stop stop-color="#066A81"/><stop offset="1" stop-color="#12E2EF"/></linearGradient><linearGradient id="paint106_linear" x1="492.891" x2="497.877" y1="530.054" y2="559.55" gradientUnits="userSpaceOnUse"><stop stop-color="#066A81"/><stop offset="1" stop-color="#12E2EF"/></linearGradient><linearGradient id="paint107_linear" x1="498.974" x2="503.96" y1="543.513" y2="573.01" gradientUnits="userSpaceOnUse"><stop stop-color="#066A81"/><stop offset="1" stop-color="#12E2EF"/></linearGradient><linearGradient id="paint108_linear" x1="492.891" x2="497.877" y1="555.478" y2="584.974" gradientUnits="userSpaceOnUse"><stop stop-color="#066A81"/><stop offset="1" stop-color="#12E2EF"/></linearGradient><linearGradient id="paint109_linear" x1="487.101" x2="478.402" y1="553.691" y2="577.586" gradientUnits="userSpaceOnUse"><stop stop-color="#CEFFDD"/><stop offset="1" stop-color="#B2FFF9"/></linearGradient><linearGradient id="paint110_linear" x1="597.808" x2="604.813" y1="708.335" y2="745.163" gradientUnits="userSpaceOnUse"><stop stop-color="#5DF1D7"/><stop offset="1" stop-color="#128698"/></linearGradient><linearGradient id="paint111_linear" x1="657.911" x2="600.381" y1="661.581" y2="690.252" gradientUnits="userSpaceOnUse"><stop stop-color="#070707"/><stop offset="1" stop-color="#3E2F24"/></linearGradient><linearGradient id="paint112_linear" x1="501.231" x2="502.7" y1="597.158" y2="607.256" gradientUnits="userSpaceOnUse"><stop stop-color="#CEFFDD"/><stop offset="1" stop-color="#B2FFF9"/></linearGradient><linearGradient id="paint113_linear" x1="583.351" x2="584.82" y1="630.059" y2="640.157" gradientUnits="userSpaceOnUse"><stop stop-color="#CEFFDD"/><stop offset="1" stop-color="#B2FFF9"/></linearGradient><linearGradient id="paint114_linear" x1="526.086" x2="526.575" y1="561.689" y2="565.055" gradientUnits="userSpaceOnUse"><stop stop-color="#CEFFDD"/><stop offset="1" stop-color="#B2FFF9"/></linearGradient><linearGradient id="paint115_linear" x1="535.21" x2="535.7" y1="566.175" y2="569.541" gradientUnits="userSpaceOnUse"><stop stop-color="#CEFFDD"/><stop offset="1" stop-color="#B2FFF9"/></linearGradient><linearGradient id="paint116_linear" x1="542.814" x2="543.303" y1="570.662" y2="574.028" gradientUnits="userSpaceOnUse"><stop stop-color="#CEFFDD"/><stop offset="1" stop-color="#B2FFF9"/></linearGradient><linearGradient id="paint117_linear" x1="415.313" x2="627.262" y1="375.539" y2="838.463" gradientUnits="userSpaceOnUse"><stop stop-color="#066A81" stop-opacity=".249"/><stop offset="1" stop-color="#12E2EF"/></linearGradient><radialGradient id="paint118_radial" cx="0" cy="0" r="1" gradientTransform="translate(439.991 557.425) rotate(-29.0546) scale(265.356 161.091)" gradientUnits="userSpaceOnUse"><stop stop-color="#fff" stop-opacity=".22"/><stop offset="1" stop-color="#fff" stop-opacity=".12"/></radialGradient><linearGradient id="paint119_linear" x1="626.893" x2="694.309" y1="547.963" y2="718.891" gradientUnits="userSpaceOnUse"><stop stop-color="#DBFFEE" stop-opacity=".56"/><stop offset="1" stop-color="#12E2EF"/></linearGradient><linearGradient id="paint120_linear" x1="608.381" x2="611.398" y1="607.289" y2="625.155" gradientUnits="userSpaceOnUse"><stop stop-color="#CEFFDD"/><stop offset="1" stop-color="#B2FFF9"/></linearGradient><linearGradient id="paint121_linear" x1="595.186" x2="633.781" y1="608.088" y2="615.579" gradientUnits="userSpaceOnUse"><stop stop-color="#5CDEAC"/><stop offset="1" stop-color="#123635"/></linearGradient><linearGradient id="paint122_linear" x1="607.751" x2="636.404" y1="578.926" y2="584.916" gradientUnits="userSpaceOnUse"><stop stop-color="#5DF1D7"/><stop offset="1" stop-color="#128698"/></linearGradient><linearGradient id="paint123_linear" x1="614.318" x2="634.313" y1="577.265" y2="579.852" gradientUnits="userSpaceOnUse"><stop stop-color="#5CDEAC"/><stop offset="1" stop-color="#123635"/></linearGradient><linearGradient id="paint124_linear" x1="614.901" x2="616.012" y1="589.628" y2="597.261" gradientUnits="userSpaceOnUse"><stop stop-color="#CEFFDD"/><stop offset="1" stop-color="#B2FFF9"/></linearGradient><linearGradient id="paint125_linear" x1="618.125" x2="625.76" y1="591.822" y2="593.214" gradientUnits="userSpaceOnUse"><stop stop-color="#5CDEAC"/><stop offset="1" stop-color="#123635"/></linearGradient><linearGradient id="paint126_linear" x1="623.156" x2="625.899" y1="590.737" y2="601.691" gradientUnits="userSpaceOnUse"><stop stop-color="#CEFFDD"/><stop offset="1" stop-color="#B2FFF9"/></linearGradient><linearGradient id="paint127_linear" x1="624.957" x2="629.171" y1="610.263" y2="633.933" gradientUnits="userSpaceOnUse"><stop stop-color="#CEFFDD"/><stop offset="1" stop-color="#B2FFF9"/></linearGradient><linearGradient id="paint128_linear" x1="631.84" x2="637.805" y1="633.371" y2="684.065" gradientUnits="userSpaceOnUse"><stop stop-color="#CEFFDD"/><stop offset="1" stop-color="#B2FFF9"/></linearGradient><linearGradient id="paint129_linear" x1="613.914" x2="614.649" y1="626.265" y2="631.314" gradientUnits="userSpaceOnUse"><stop stop-color="#CEFFDD"/><stop offset="1" stop-color="#B2FFF9"/></linearGradient><linearGradient id="paint130_linear" x1="620.997" x2="621.732" y1="633.742" y2="638.791" gradientUnits="userSpaceOnUse"><stop stop-color="#CEFFDD"/><stop offset="1" stop-color="#B2FFF9"/></linearGradient><linearGradient id="paint131_linear" x1="405.369" x2="397.231" y1="487.471" y2="525.196" gradientUnits="userSpaceOnUse"><stop stop-color="#24D5BF" stop-opacity=".49"/><stop offset="1" stop-color="#fff" stop-opacity=".56"/></linearGradient><linearGradient id="paint132_linear" x1="381.284" x2="382.925" y1="523.557" y2="538.143" gradientUnits="userSpaceOnUse"><stop stop-color="#CEFFDD"/><stop offset="1" stop-color="#B2FFF9"/></linearGradient><linearGradient id="paint133_linear" x1="310.695" x2="336.505" y1="631.809" y2="697.207" gradientUnits="userSpaceOnUse"><stop stop-color="#CEFFDD"/><stop offset="1" stop-color="#B2FFF9"/></linearGradient><linearGradient id="paint134_linear" x1="345.398" x2="339.21" y1="665.678" y2="695.139" gradientUnits="userSpaceOnUse"><stop stop-color="#5CDEAC"/><stop offset="1" stop-color="#123635"/></linearGradient><linearGradient id="paint135_linear" x1="319.54" x2="341.907" y1="637.211" y2="712.381" gradientUnits="userSpaceOnUse"><stop stop-color="#CEFFDD"/><stop offset="1" stop-color="#B2FFF9"/></linearGradient><linearGradient id="paint136_linear" x1="369.361" x2="363.381" y1="673.712" y2="706.183" gradientUnits="userSpaceOnUse"><stop stop-color="#5CDEAC"/><stop offset="1" stop-color="#123635"/></linearGradient><linearGradient id="paint137_linear" x1="325.055" x2="345.549" y1="569.218" y2="599.201" gradientUnits="userSpaceOnUse"><stop stop-color="#28674F"/><stop offset="1" stop-color="#123635"/></linearGradient><linearGradient id="paint138_linear" x1="324.372" x2="323.728" y1="520.473" y2="546.023" gradientUnits="userSpaceOnUse"><stop stop-color="#5DF1D7"/><stop offset="1" stop-color="#128698"/></linearGradient><linearGradient id="paint139_linear" x1="294.05" x2="329.861" y1="507.655" y2="611.339" gradientUnits="userSpaceOnUse"><stop stop-color="#5DF1D7"/><stop offset="1" stop-color="#128698"/></linearGradient><linearGradient id="paint140_linear" x1="326.385" x2="333.489" y1="496.212" y2="532.085" gradientUnits="userSpaceOnUse"><stop stop-color="#CEFFDD"/><stop offset="1" stop-color="#B2FFF9"/></linearGradient><linearGradient id="paint141_linear" x1="334.719" x2="362.682" y1="511.183" y2="516.078" gradientUnits="userSpaceOnUse"><stop stop-color="#165B7A"/><stop offset="1" stop-color="#3E516B"/></linearGradient><linearGradient id="paint142_linear" x1="330.94" x2="330.486" y1="495.808" y2="505.131" gradientUnits="userSpaceOnUse"><stop stop-color="#5DF1D7"/><stop offset="1" stop-color="#128698"/></linearGradient><linearGradient id="paint143_linear" x1="326.12" x2="345.159" y1="534.156" y2="535.874" gradientUnits="userSpaceOnUse"><stop stop-color="#165B7A"/><stop offset="1" stop-color="#3E516B"/></linearGradient><linearGradient id="paint144_linear" x1="582.83" x2="585.969" y1="711.798" y2="734.671" gradientUnits="userSpaceOnUse"><stop stop-color="#CEFFDD"/><stop offset="1" stop-color="#B2FFF9"/></linearGradient><linearGradient id="paint145_linear" x1="568.784" x2="560.18" y1="827.692" y2="872.732" gradientUnits="userSpaceOnUse"><stop stop-color="#5CDEAC"/><stop offset="1" stop-color="#123635"/></linearGradient><linearGradient id="paint146_linear" x1="521.524" x2="526.152" y1="827.319" y2="852.816" gradientUnits="userSpaceOnUse"><stop stop-color="#CEFFDD"/><stop offset="1" stop-color="#B2FFF9"/></linearGradient><linearGradient id="paint147_linear" x1="505.485" x2="482.55" y1="794.693" y2="834.06" gradientUnits="userSpaceOnUse"><stop stop-color="#5CDEAC"/><stop offset="1" stop-color="#123635"/></linearGradient><linearGradient id="paint148_linear" x1="486.795" x2="489.677" y1="808.14" y2="822.834" gradientUnits="userSpaceOnUse"><stop stop-color="#CEFFDD"/><stop offset="1" stop-color="#B2FFF9"/></linearGradient><linearGradient id="paint149_linear" x1="512.501" x2="542.438" y1="682.097" y2="759.907" gradientUnits="userSpaceOnUse"><stop stop-color="#28674F"/><stop offset="1" stop-color="#123635"/></linearGradient><linearGradient id="paint150_linear" x1="515.94" x2="519.933" y1="583.495" y2="623.984" gradientUnits="userSpaceOnUse"><stop stop-color="#CEFFDD"/><stop offset="1" stop-color="#B2FFF9"/></linearGradient><linearGradient id="paint151_linear" x1="549.627" x2="611.164" y1="598.888" y2="614.458" gradientUnits="userSpaceOnUse"><stop stop-color="#165B7A"/><stop offset="1" stop-color="#3E516B"/></linearGradient><linearGradient id="paint152_linear" x1="460.429" x2="510.369" y1="579.848" y2="724.775" gradientUnits="userSpaceOnUse"><stop stop-color="#65FFE4"/><stop offset="1" stop-color="#1CABC1"/></linearGradient><linearGradient id="paint153_linear" x1="441.659" x2="450.924" y1="551.435" y2="585.303" gradientUnits="userSpaceOnUse"><stop stop-color="#CEFFDD"/><stop offset="1" stop-color="#B2FFF9"/></linearGradient><linearGradient id="paint154_linear" x1="471.48" x2="464.271" y1="755.608" y2="795.895" gradientUnits="userSpaceOnUse"><stop stop-color="#5CDEAC"/><stop offset="1" stop-color="#123635"/></linearGradient><linearGradient id="paint155_linear" x1="425.351" x2="428.984" y1="755.537" y2="778.383" gradientUnits="userSpaceOnUse"><stop stop-color="#CEFFDD"/><stop offset="1" stop-color="#B2FFF9"/></linearGradient><linearGradient id="paint156_linear" x1="423.419" x2="403.268" y1="730.232" y2="769.971" gradientUnits="userSpaceOnUse"><stop stop-color="#5CDEAC"/><stop offset="1" stop-color="#123635"/></linearGradient><linearGradient id="paint157_linear" x1="405.164" x2="408.453" y1="742.286" y2="757.421" gradientUnits="userSpaceOnUse"><stop stop-color="#CEFFDD"/><stop offset="1" stop-color="#B2FFF9"/></linearGradient><linearGradient id="paint158_linear" x1="428.577" x2="454.585" y1="624.696" y2="695.251" gradientUnits="userSpaceOnUse"><stop stop-color="#28674F"/><stop offset="1" stop-color="#123635"/></linearGradient><linearGradient id="paint159_linear" x1="412.415" x2="424.829" y1="535.742" y2="590.575" gradientUnits="userSpaceOnUse"><stop stop-color="#CEFFDD"/><stop offset="1" stop-color="#B2FFF9"/></linearGradient><linearGradient id="paint160_linear" x1="430.669" x2="469.685" y1="556.298" y2="564.246" gradientUnits="userSpaceOnUse"><stop stop-color="#165B7A"/><stop offset="1" stop-color="#3E516B"/></linearGradient><linearGradient id="paint161_linear" x1="402.37" x2="406.425" y1="598.378" y2="615.65" gradientUnits="userSpaceOnUse"><stop stop-color="#CEFFDD"/><stop offset="1" stop-color="#B2FFF9"/></linearGradient><linearGradient id="paint162_linear" x1="423.054" x2="471.55" y1="574.027" y2="651.854" gradientUnits="userSpaceOnUse"><stop stop-color="#1F98CD"/><stop offset="1" stop-color="#1184C5"/></linearGradient><linearGradient id="paint163_linear" x1="457.979" x2="472.338" y1="567.807" y2="615.025" gradientUnits="userSpaceOnUse"><stop stop-color="#BEFFED"/><stop offset="1" stop-color="#B2FFF9"/></linearGradient><linearGradient id="paint164_linear" x1="453.558" x2="466.096" y1="571.786" y2="599.454" gradientUnits="userSpaceOnUse"><stop stop-color="#1F98CD"/><stop offset="1" stop-color="#1184C5"/></linearGradient></defs></svg>