<svg xmlns="http://www.w3.org/2000/svg" width="619" height="196" fill="none" viewBox="0 0 619 196"><g clip-path="url(#clip0)"><path fill="#596274" d="M148.247 0.5H141.227V7.52H148.247V0.5Z"/><path fill="#596274" d="M101.247 0.5H94.2266V7.52H101.247V0.5Z"/><path fill="#3DE8E7" d="M289.247 0.5H282.227V7.52H289.247V0.5Z"/><path fill="#596274" d="M336.247 0.5H329.227V7.52H336.247V0.5Z"/><path fill="#596274" d="M571.247 0.5H564.227V7.52H571.247V0.5Z"/><path fill="#3DE8E7" d="M618.247 0.5H611.227V7.52H618.247V0.5Z"/><path fill="#3DE8E7" d="M101.247 47.5H94.2266V54.52H101.247V47.5Z"/><path fill="#3DE8E7" d="M148.247 47.5H141.227V54.52H148.247V47.5Z"/><path fill="#596274" d="M242.247 47.5H235.227V54.52H242.247V47.5Z"/><path fill="#596274" d="M289.247 47.5H282.227V54.52H289.247V47.5Z"/><path fill="#596274" d="M336.247 47.5H329.227V54.52H336.247V47.5Z"/><path fill="#596274" d="M383.247 47.5H376.227V54.52H383.247V47.5Z"/><path fill="#596274" d="M524.247 47.5H517.227V54.52H524.247V47.5Z"/><path fill="#596274" d="M571.247 47.5H564.227V54.52H571.247V47.5Z"/><path fill="#596274" d="M618.247 47.5H611.227V54.52H618.247V47.5Z"/><path fill="#596274" d="M101.247 94.5H94.2266V101.52H101.247V94.5Z"/><path fill="#596274" d="M54.2466 94.5H47.2266V101.52H54.2466V94.5Z"/><path fill="#596274" d="M7.24656 94.5H0.226562V101.52H7.24656V94.5Z"/><path fill="#596274" d="M54.2466 47.5H47.2266V54.52H54.2466V47.5Z"/><path fill="#596274" d="M148.247 94.5H141.227V101.52H148.247V94.5Z"/><path fill="#596274" d="M242.247 94.5H235.227V101.52H242.247V94.5Z"/><path fill="#3DE8E7" d="M383.247 94.5H376.227V101.52H383.247V94.5Z"/><path fill="#596274" d="M477.247 94.5H470.227V101.52H477.247V94.5Z"/><path fill="#596274" d="M524.247 94.5H517.227V101.52H524.247V94.5Z"/><path fill="#3DE8E7" d="M571.247 94.5H564.227V101.52H571.247V94.5Z"/><path fill="#596274" d="M618.247 94.5H611.227V101.52H618.247V94.5Z"/><path fill="#596274" d="M7.24656 141.5H0.226562V148.52H7.24656V141.5Z"/><path fill="#3DE8E7" d="M54.2466 141.5H47.2266V148.52H54.2466V141.5Z"/><path fill="#596274" d="M101.247 141.5H94.2266V148.52H101.247V141.5Z"/><path fill="#596274" d="M148.247 141.5H141.227V148.52H148.247V141.5Z"/><path fill="#3DE8E7" d="M242.247 141.5H235.227V148.52H242.247V141.5Z"/><path fill="#596274" d="M289.247 141.5H282.227V148.52H289.247V141.5Z"/><path fill="#596274" d="M336.247 141.5H329.227V148.52H336.247V141.5Z"/><path fill="#596274" d="M383.247 141.5H376.227V148.52H383.247V141.5Z"/><path fill="#3DE8E7" d="M477.247 141.5H470.227V148.52H477.247V141.5Z"/><path fill="#596274" d="M524.247 141.5H517.227V148.52H524.247V141.5Z"/><path fill="#596274" d="M571.247 141.5H564.227V148.52H571.247V141.5Z"/><path fill="#596274" d="M618.247 141.5H611.227V148.52H618.247V141.5Z"/><path fill="#596274" d="M101.247 188.5H94.2266V195.52H101.247V188.5Z"/><path fill="#3DE8E7" d="M148.247 188.5H141.227V195.52H148.247V188.5Z"/><path fill="#596274" d="M289.247 188.5H282.227V195.52H289.247V188.5Z"/><path fill="#3DE8E7" d="M336.247 188.5H329.227V195.52H336.247V188.5Z"/><path fill="#3DE8E7" d="M571.247 188.5H564.227V195.52H571.247V188.5Z"/><path fill="#596274" d="M618.247 188.5H611.227V195.52H618.247V188.5Z"/></g><defs><clipPath id="clip0"><rect width="618.02" height="195.02" x=".227" y=".5" fill="#fff"/></clipPath></defs></svg>