<svg xmlns="http://www.w3.org/2000/svg" width="125" height="126" fill="none" viewBox="0 0 125 126"><path fill="url(#paint0_linear)" d="M120.825 68.9541C121.425 66.8457 121.748 64.6069 121.748 62.287C121.748 60.8261 121.62 59.3974 121.375 58.0132H27.447C27.2023 59.3974 27.0742 60.8261 27.0742 62.287C27.0742 64.6069 27.3972 66.8457 27.9975 68.9541H120.825Z"/><path fill="url(#paint1_linear)" d="M117.821 74.7893C119.108 70.2914 119.801 65.5153 119.801 60.5661C119.801 57.4496 119.527 54.4017 119.002 51.4487H29.9189C29.3939 54.4017 29.1191 57.4496 29.1191 60.5661C29.1191 65.5153 29.812 70.2914 31.0997 74.7893H117.821Z"/><ellipse cx="74.297" cy="60.566" fill="url(#paint2_linear)" rx="41.932" ry="44.858"/><path fill="url(#paint3_linear)" d="M75.1704 98.9252C113.598 98.1219 121.221 50.778 97.5643 37.7616C89.8558 33.5202 84.8574 35.495 80.4416 37.2397C78.4657 38.0204 76.6065 38.755 74.6733 38.866C72.7401 38.755 70.8809 38.0204 68.905 37.2397C64.4892 35.495 59.4908 33.5202 51.7823 37.7616C28.1257 50.778 35.7484 98.1219 74.1762 98.9252V98.9355C74.3424 98.9355 74.5082 98.9347 74.6733 98.9329C74.8384 98.9347 75.0042 98.9355 75.1704 98.9355V98.9252Z"/><circle cx="99.561" cy="78.528" r="3.484" fill="url(#paint4_linear)" opacity=".4"/><path stroke="url(#paint5_linear)" stroke-linecap="round" stroke-linejoin="round" stroke-width="7.964" d="M94.0859 46.1743C99.0634 48.829 105.733 55.8306 102.548 68.5729"/><path fill="url(#paint6_linear)" d="M51 23.5937C57.5852 18.9901 65.4546 16.314 73.9083 16.314C82.362 16.314 90.2314 18.9901 96.8166 23.5937C91.6736 26.6963 83.3285 28.7136 73.9083 28.7136C64.488 28.7136 56.143 26.6963 51 23.5937Z" opacity=".2"/><path fill="url(#paint7_linear)" d="M51.2734 23.9883C57.8586 19.3847 65.728 16.7085 74.1817 16.7085V29.1082C64.7615 29.1082 56.4164 27.0909 51.2734 23.9883Z" opacity=".2"/><ellipse cx="105.824" cy="86.824" fill="url(#paint8_radial)" rx="1.023" ry="1.094"/><ellipse cx="107.87" cy="83.178" fill="url(#paint9_radial)" rx="1.023" ry="1.094"/><ellipse cx="109.914" cy="78.802" fill="url(#paint10_radial)" rx="1.023" ry="1.094"/><path fill="#000" fill-rule="evenodd" d="M65.7925 104.465C54.4114 101.906 44.7293 94.4099 38.7944 84.1681C38.8229 84.1784 38.8526 84.1891 38.8835 84.2001C39.3135 84.3546 39.9719 84.5839 40.8343 84.8635C42.5604 85.423 45.0951 86.181 48.2441 86.9421C54.5653 88.4701 63.2411 89.9814 72.7567 89.9814C82.2723 89.9814 90.9481 88.4701 97.2694 86.9421C100.418 86.181 102.953 85.423 104.679 84.8635C105.542 84.5839 106.2 84.3546 106.63 84.2001C106.845 84.1229 107.003 84.0645 107.1 84.028C107.149 84.0097 107.182 83.9969 107.2 83.99L107.208 83.9871L107.21 83.9862L107.212 83.9855L107.215 83.9844C108.285 83.5675 109.39 83.4554 110.446 83.6067C104.862 93.5659 95.7675 101.015 84.9929 103.997C81.1528 104.427 77.0399 104.695 72.7567 104.695C70.3769 104.695 68.0496 104.612 65.7925 104.465Z" clip-rule="evenodd" opacity=".4"/><path fill="url(#paint11_linear)" fill-rule="evenodd" d="M36.1938 42.2014C37.8716 38.2066 40.0798 34.5221 42.7226 31.2505L45.8255 37.2254L40.0301 43.79L36.1938 42.2014Z" clip-rule="evenodd" opacity=".2"/><path stroke="url(#paint12_linear)" stroke-dasharray="1 1.99" stroke-width="2.986" d="M105.143 38.0542C105.143 38.0542 109.574 41.7012 111.279 48.9951"/><ellipse cx="100.05" cy="38.684" fill="url(#paint13_linear)" opacity=".3" rx="1.023" ry="1.094"/><mask id="mask0" width="70" height="18" x="39" y="91" mask-type="alpha" maskUnits="userSpaceOnUse"><path fill="url(#paint14_linear)" fill-rule="evenodd" d="M46.6653 91.9169L46.6616 91.9155L46.6731 91.9199C46.6875 91.9254 46.7142 91.9355 46.753 91.95C46.8306 91.979 46.9563 92.0253 47.1276 92.0866C47.4703 92.2091 47.995 92.391 48.6822 92.6127C50.0578 93.0565 52.0777 93.6577 54.5871 94.2614C59.6246 95.4734 66.5384 96.6721 74.1215 96.6721C81.7046 96.6721 88.6184 95.4734 93.6558 94.2614C96.1653 93.6577 98.1852 93.0565 99.5608 92.6127C100.248 92.391 100.773 92.2091 101.115 92.0866C101.287 92.0253 101.412 91.979 101.49 91.95C101.529 91.9355 101.556 91.9254 101.57 91.9199L101.576 91.9176L101.578 91.9169L101.579 91.9163L101.581 91.9155C104.411 90.8188 107.537 92.381 108.566 95.4076C109.595 98.4348 108.136 101.781 105.308 102.884C105.308 102.884 105.302 102.886 105.302 102.886L105.293 102.889L105.278 102.895L105.233 102.912C105.197 102.926 105.148 102.945 105.087 102.968C104.964 103.014 104.792 103.077 104.573 103.155C104.134 103.312 103.507 103.529 102.711 103.786C101.119 104.299 98.8455 104.975 96.0495 105.647C90.4758 106.988 82.7305 108.342 74.1215 108.342C65.5125 108.342 57.7672 106.988 52.1935 105.647C49.3974 104.975 47.1237 104.299 45.5322 103.786C44.7358 103.529 44.1085 103.312 43.6701 103.155C43.4509 103.077 43.2787 103.014 43.1561 102.968C43.0948 102.945 43.0459 102.926 43.0097 102.912L42.9649 102.895L42.9497 102.889L42.9414 102.886C42.9414 102.886 42.9369 102.884 42.9369 102.884C40.1074 101.782 38.6479 98.4354 39.677 95.4076C40.7057 92.3811 43.832 90.8189 46.6616 91.9155" clip-rule="evenodd"/></mask><g mask="url(#mask0)"><path fill="url(#paint15_linear)" fill-rule="evenodd" d="M46.6653 91.9169L46.6616 91.9155L46.6731 91.9199C46.6875 91.9254 46.7142 91.9355 46.753 91.95C46.8306 91.979 46.9563 92.0253 47.1276 92.0866C47.4703 92.2091 47.995 92.391 48.6822 92.6127C50.0578 93.0565 52.0777 93.6577 54.5871 94.2614C59.6246 95.4734 66.5384 96.6721 74.1215 96.6721C81.7046 96.6721 88.6184 95.4734 93.6558 94.2614C96.1653 93.6577 98.1852 93.0565 99.5608 92.6127C100.248 92.391 100.773 92.2091 101.115 92.0866C101.287 92.0253 101.412 91.979 101.49 91.95C101.529 91.9355 101.556 91.9254 101.57 91.9199L101.576 91.9176L101.578 91.9169L101.579 91.9163L101.581 91.9155C104.411 90.8188 107.537 92.381 108.566 95.4076C109.595 98.4362 108.135 101.784 105.304 102.885C105.304 102.885 105.307 102.884 105.302 102.886L105.293 102.889L105.278 102.895L105.233 102.912C105.197 102.926 105.148 102.945 105.087 102.968C104.964 103.014 104.792 103.077 104.573 103.155C104.134 103.312 103.507 103.529 102.711 103.786C101.119 104.299 98.8455 104.975 96.0495 105.647C90.4758 106.988 82.7305 108.342 74.1215 108.342C65.5125 108.342 57.7672 106.988 52.1935 105.647C49.3974 104.975 47.1237 104.299 45.5322 103.786C44.7358 103.529 44.1085 103.312 43.6701 103.155C43.4509 103.077 43.2787 103.014 43.1561 102.968C43.0948 102.945 43.0459 102.926 43.0097 102.912L42.9649 102.895L42.9497 102.889L42.9414 102.886C42.9385 102.885 42.9393 102.885 42.9393 102.885C40.1082 101.784 38.6476 98.4362 39.677 95.4076C40.7057 92.3811 43.832 90.8189 46.6616 91.9155" clip-rule="evenodd"/><path stroke="url(#paint16_linear)" stroke-dasharray="1 3.98" stroke-width="17.919" d="M110.256 95.2119C110.256 95.2119 94.077 101.776 74.1194 101.776C54.1618 101.776 37.9829 95.2119 37.9829 95.2119"/><path fill="#000" fill-rule="evenodd" d="M39.6651 94.4013L39.6604 94.3995L39.6748 94.405C39.6929 94.4119 39.7265 94.4247 39.7752 94.443C39.8725 94.4796 40.0302 94.538 40.2452 94.6152C40.6752 94.7696 41.3336 94.999 42.196 95.2785C43.9222 95.8381 46.4568 96.596 49.6058 97.3572C55.927 98.8851 64.6029 100.396 74.1185 100.396C83.634 100.396 92.3099 98.8851 98.6311 97.3572C101.78 96.596 104.315 95.8381 106.041 95.2785C106.903 94.999 107.562 94.7696 107.992 94.6152C108.207 94.538 108.364 94.4796 108.462 94.443C108.51 94.4247 108.544 94.4119 108.562 94.405L108.57 94.4022L108.572 94.4013L108.574 94.4005L108.577 94.3995C112.127 93.0168 116.05 94.9864 117.341 98.8021C118.633 102.621 116.8 106.842 113.247 108.23C113.247 108.23 113.251 108.228 113.245 108.231L113.234 108.235L113.215 108.242L113.159 108.264C113.114 108.281 113.052 108.305 112.975 108.334C112.821 108.391 112.605 108.471 112.33 108.57C111.78 108.768 110.993 109.041 109.994 109.365C107.997 110.013 105.143 110.864 101.635 111.712C94.6406 113.403 84.9214 115.11 74.1185 115.11C63.3155 115.11 53.5963 113.403 46.6022 111.712C43.0935 110.864 40.2404 110.013 38.2432 109.365C37.2439 109.041 36.4567 108.768 35.9066 108.57C35.6315 108.471 35.4154 108.391 35.2616 108.334C35.1847 108.305 35.1233 108.281 35.0778 108.264L35.0216 108.242L35.0025 108.235L34.9922 108.231C34.9885 108.23 34.9895 108.23 34.9895 108.23C31.4369 106.842 29.6041 102.621 30.8958 98.8021C32.1866 94.9865 36.1098 93.0169 39.6604 94.3995" clip-rule="evenodd" opacity=".4"/><path fill="#000" fill-rule="evenodd" d="M39.6651 99.3788L39.6604 99.377L39.6748 99.3825C39.6929 99.3895 39.7265 99.4023 39.7752 99.4205C39.8725 99.4571 40.0302 99.5155 40.2452 99.5927C40.6752 99.7472 41.3336 99.9765 42.196 100.256C43.9222 100.816 46.4568 101.574 49.6058 102.335C55.927 103.863 64.6029 105.374 74.1185 105.374C83.634 105.374 92.3099 103.863 98.6311 102.335C101.78 101.574 104.315 100.816 106.041 100.256C106.903 99.9765 107.562 99.7472 107.992 99.5927C108.207 99.5155 108.364 99.4571 108.462 99.4205C108.51 99.4023 108.544 99.3895 108.562 99.3825L108.57 99.3797L108.572 99.3788L108.574 99.3781L108.577 99.377C112.127 97.9943 116.05 99.964 117.341 103.78C118.633 107.598 116.8 111.819 113.247 113.207C113.247 113.207 113.251 113.206 113.245 113.209L113.234 113.213L113.215 113.22L113.159 113.242C113.114 113.259 113.052 113.282 112.975 113.311C112.821 113.369 112.605 113.449 112.33 113.548C111.78 113.745 110.993 114.019 109.994 114.343C107.997 114.99 105.143 115.842 101.635 116.69C94.6406 118.38 84.9214 120.087 74.1185 120.087C63.3155 120.087 53.5963 118.38 46.6022 116.69C43.0935 115.842 40.2404 114.99 38.2432 114.343C37.2439 114.019 36.4567 113.745 35.9066 113.548C35.6315 113.449 35.4154 113.369 35.2616 113.311C35.1847 113.282 35.1233 113.259 35.0778 113.242L35.0216 113.22L35.0025 113.213L34.9922 113.209C34.9885 113.207 34.9895 113.207 34.9895 113.207C31.4369 111.819 29.6041 107.598 30.8958 103.78C32.1866 99.964 36.1098 97.9944 39.6604 99.377" clip-rule="evenodd" opacity=".4"/></g><path fill="url(#paint17_linear)" d="M54.6802 88.9823C55.0087 87.8284 55.1855 86.6032 55.1855 85.3336C55.1855 84.5341 55.1154 83.7522 54.9814 82.9946H3.57708C3.44314 83.7522 3.37305 84.5341 3.37305 85.3336C3.37305 86.6032 3.54982 87.8284 3.87833 88.9823H54.6802Z"/><path fill="url(#paint18_linear)" d="M53.0363 92.176C53.741 89.7144 54.1202 87.1006 54.1202 84.3921C54.1202 82.6865 53.9698 81.0185 53.6825 79.4023H4.92987C4.64255 81.0185 4.49219 82.6865 4.49219 84.3921C4.49219 87.1006 4.87139 89.7144 5.5761 92.176H53.0363Z"/><ellipse cx="29.217" cy="84.392" fill="url(#paint19_linear)" rx="22.948" ry="24.549"/><path fill="url(#paint20_linear)" d="M29.6951 105.384C50.7256 104.945 54.8974 79.0347 41.9507 71.9111C37.732 69.5899 34.9965 70.6707 32.5799 71.6256C31.4985 72.0528 30.481 72.4548 29.423 72.5156C28.365 72.4548 27.3475 72.0528 26.2662 71.6256C23.8495 70.6707 21.1141 69.5899 16.8954 71.9111C3.94871 79.0347 8.12044 104.945 29.151 105.384V105.39C29.242 105.39 29.3327 105.39 29.423 105.389C29.5134 105.39 29.6041 105.39 29.6951 105.39V105.384Z"/><circle cx="43.043" cy="94.222" r="1.907" fill="url(#paint21_linear)" opacity=".4"/><path stroke="url(#paint22_linear)" stroke-linecap="round" stroke-linejoin="round" stroke-width="4.358" d="M40.0469 76.5156C42.7709 77.9684 46.4211 81.8002 44.6777 88.7738"/><path fill="url(#paint23_linear)" d="M16.6201 63.6105C20.224 61.0911 24.5308 59.6265 29.1572 59.6265C33.7837 59.6265 38.0904 61.0911 41.6943 63.6105C38.8797 65.3085 34.3127 66.4125 29.1572 66.4125C24.0018 66.4125 19.4348 65.3085 16.6201 63.6105Z" opacity=".2"/><path fill="url(#paint24_linear)" d="M16.7695 63.8263C20.3734 61.3069 24.6802 59.8423 29.3066 59.8423V66.6283C24.1512 66.6283 19.5842 65.5243 16.7695 63.8263Z" opacity=".2"/><ellipse cx="46.471" cy="98.762" fill="url(#paint25_radial)" rx=".56" ry=".599"/><ellipse cx="47.59" cy="96.766" fill="url(#paint26_radial)" rx=".56" ry=".599"/><ellipse cx="48.71" cy="94.371" fill="url(#paint27_radial)" rx=".56" ry=".599"/><path fill="#000" fill-rule="evenodd" d="M24.5625 108.416C18.3339 107.016 13.0351 102.913 9.78711 97.3082C9.8027 97.3138 9.81895 97.3197 9.83584 97.3257C10.0712 97.4103 10.4315 97.5358 10.9035 97.6888C11.8482 97.995 13.2353 98.4098 14.9587 98.8264C18.4181 99.6626 23.1662 100.49 28.3738 100.49C33.5814 100.49 38.3295 99.6626 41.7889 98.8264C43.5123 98.4098 44.8995 97.995 45.8441 97.6888C46.3161 97.5358 46.6764 97.4103 46.9118 97.3257C47.0294 97.2835 47.1157 97.2515 47.169 97.2315L47.2239 97.2107L47.228 97.2092L47.2293 97.2087L47.2303 97.2083L47.2318 97.2077C47.8177 96.9795 48.4221 96.9182 48.9999 97.001C45.944 102.451 40.967 106.528 35.0704 108.16C32.9687 108.395 30.7179 108.542 28.3738 108.542C27.0714 108.542 25.7977 108.497 24.5625 108.416Z" clip-rule="evenodd" opacity=".4"/><path fill="url(#paint28_linear)" fill-rule="evenodd" d="M8.36377 74.3413C9.28195 72.155 10.4905 70.1386 11.9368 68.3481L13.6349 71.6181L10.4632 75.2107L8.36377 74.3413Z" clip-rule="evenodd" opacity=".2"/><path stroke="url(#paint29_linear)" stroke-dasharray=".54 1.09" stroke-width="1.634" d="M46.0977 72.0713C46.0977 72.0713 48.5231 74.0672 49.4559 78.059"/><ellipse cx="11.022" cy="72.417" fill="url(#paint30_linear)" opacity=".3" rx=".56" ry=".599"/><mask id="mask1" width="39" height="10" x="10" y="101" mask-type="alpha" maskUnits="userSpaceOnUse"><path fill="url(#paint31_linear)" fill-rule="evenodd" d="M14.0949 101.55L14.0928 101.549L14.0991 101.551C14.107 101.554 14.1217 101.56 14.1429 101.568C14.1853 101.584 14.2541 101.609 14.3479 101.642C14.5354 101.709 14.8226 101.809 15.1987 101.93C15.9515 102.173 17.0569 102.502 18.4303 102.833C21.1872 103.496 24.9709 104.152 29.1209 104.152C33.271 104.152 37.0547 103.496 39.8116 102.833C41.185 102.502 42.2904 102.173 43.0432 101.93C43.4193 101.809 43.7065 101.709 43.894 101.642C43.9878 101.609 44.0565 101.584 44.099 101.568C44.1202 101.56 44.1349 101.554 44.1428 101.551L44.146 101.55L44.147 101.55L44.1479 101.549L44.1491 101.549C45.6976 100.949 47.4086 101.804 47.9715 103.46C48.5346 105.117 47.7363 106.948 46.1883 107.551C46.1883 107.551 46.185 107.553 46.185 107.553L46.1805 107.555L46.1722 107.558L46.1476 107.567C46.1278 107.575 46.101 107.585 46.0675 107.597C46.0004 107.622 45.9062 107.657 45.7862 107.7C45.5463 107.786 45.203 107.905 44.7671 108.045C43.8961 108.326 42.6518 108.696 41.1216 109.064C38.0712 109.798 33.8324 110.539 29.1209 110.539C24.4095 110.539 20.1707 109.798 17.1203 109.064C15.5901 108.696 14.3458 108.326 13.4747 108.045C13.0389 107.905 12.6956 107.786 12.4557 107.7C12.3357 107.657 12.2415 107.622 12.1744 107.597C12.1408 107.585 12.1141 107.575 12.0942 107.567L12.0697 107.558L12.0614 107.555L12.0569 107.553C12.0569 107.553 12.0544 107.552 12.0544 107.552C10.5059 106.949 9.70714 105.117 10.2704 103.46C10.8333 101.804 12.5443 100.949 14.0928 101.549" clip-rule="evenodd"/></mask><g mask="url(#mask1)"><path fill="url(#paint32_linear)" fill-rule="evenodd" d="M14.0949 101.55L14.0928 101.549L14.0991 101.551C14.107 101.554 14.1217 101.56 14.1429 101.568C14.1853 101.584 14.2541 101.609 14.3479 101.642C14.5354 101.709 14.8226 101.809 15.1987 101.93C15.9515 102.173 17.0569 102.502 18.4303 102.833C21.1872 103.496 24.9709 104.152 29.1209 104.152C33.271 104.152 37.0547 103.496 39.8116 102.833C41.185 102.502 42.2904 102.173 43.0432 101.93C43.4193 101.809 43.7065 101.709 43.894 101.642C43.9878 101.609 44.0565 101.584 44.099 101.568C44.1202 101.56 44.1349 101.554 44.1428 101.551L44.146 101.55L44.147 101.55L44.1479 101.549L44.1491 101.549C45.6976 100.949 47.4086 101.804 47.9715 103.46C48.5349 105.117 47.7356 106.95 46.1862 107.552C46.1862 107.552 46.1879 107.552 46.185 107.553L46.1805 107.555L46.1722 107.558L46.1476 107.567C46.1278 107.575 46.101 107.585 46.0675 107.597C46.0004 107.622 45.9062 107.657 45.7862 107.7C45.5463 107.786 45.203 107.905 44.7671 108.045C43.8961 108.326 42.6518 108.696 41.1216 109.064C38.0712 109.798 33.8324 110.539 29.1209 110.539C24.4095 110.539 20.1707 109.798 17.1203 109.064C15.5901 108.696 14.3458 108.326 13.4747 108.045C13.0389 107.905 12.6956 107.786 12.4557 107.7C12.3357 107.657 12.2415 107.622 12.1744 107.597C12.1408 107.585 12.1141 107.575 12.0942 107.567L12.0697 107.558L12.0614 107.555L12.0569 107.553C12.0553 107.552 12.0557 107.552 12.0557 107.552C10.5063 106.95 9.70698 105.117 10.2704 103.46C10.8333 101.804 12.5443 100.949 14.0928 101.549" clip-rule="evenodd"/><path stroke="url(#paint33_linear)" stroke-dasharray=".54 2.18" stroke-width="9.807" d="M48.8964 103.353C48.8964 103.353 40.0421 106.946 29.1198 106.946C18.1975 106.946 9.34326 103.353 9.34326 103.353"/><path fill="#000" fill-rule="evenodd" d="M10.264 102.909L10.2614 102.908L10.2693 102.911C10.2792 102.915 10.2976 102.922 10.3242 102.932C10.3775 102.952 10.4638 102.984 10.5815 103.026C10.8168 103.111 11.1771 103.236 11.6491 103.389C12.5938 103.696 13.9809 104.11 15.7043 104.527C19.1637 105.363 23.9118 106.19 29.1194 106.19C34.3271 106.19 39.0751 105.363 42.5346 104.527C44.2579 104.11 45.6451 103.696 46.5898 103.389C47.0617 103.236 47.422 103.111 47.6574 103.026C47.775 102.984 47.8613 102.952 47.9146 102.932C47.9413 102.922 47.9596 102.915 47.9695 102.911L47.9736 102.91L47.9749 102.909L47.9759 102.909L47.9774 102.908C49.9206 102.152 52.0676 103.23 52.7741 105.318C53.481 107.408 52.4779 109.718 50.5337 110.477C50.5337 110.477 50.5358 110.477 50.5322 110.478L50.5266 110.48L50.5161 110.484L50.4854 110.496C50.4605 110.506 50.4269 110.518 50.3848 110.534C50.3006 110.566 50.1824 110.61 50.0318 110.664C49.7307 110.772 49.2999 110.921 48.753 111.099C47.66 111.453 46.0986 111.919 44.1784 112.383C40.3507 113.308 35.0316 114.243 29.1194 114.243C23.2072 114.243 17.8882 113.308 14.0605 112.383C12.1403 111.919 10.5788 111.453 9.48582 111.099C8.93892 110.921 8.50812 110.772 8.20706 110.664C8.05649 110.61 7.93827 110.566 7.85408 110.534C7.81198 110.518 7.77838 110.506 7.7535 110.496L7.72273 110.484L7.71229 110.48L7.70664 110.478C7.70459 110.477 7.70517 110.477 7.70517 110.477C5.7609 109.718 4.75785 107.408 5.46479 105.318C6.17122 103.23 8.31825 102.152 10.2614 102.908" clip-rule="evenodd" opacity=".4"/><path fill="#000" fill-rule="evenodd" d="M10.264 105.633L10.2614 105.632L10.2693 105.635C10.2792 105.639 10.2976 105.646 10.3242 105.656C10.3775 105.676 10.4638 105.708 10.5815 105.75C10.8168 105.835 11.1771 105.96 11.6491 106.113C12.5938 106.419 13.9809 106.834 15.7043 107.251C19.1637 108.087 23.9118 108.914 29.1194 108.914C34.3271 108.914 39.0751 108.087 42.5346 107.251C44.2579 106.834 45.6451 106.419 46.5898 106.113C47.0617 105.96 47.422 105.835 47.6574 105.75C47.775 105.708 47.8613 105.676 47.9146 105.656C47.9413 105.646 47.9596 105.639 47.9695 105.635L47.9736 105.633L47.9749 105.633L47.9759 105.633L47.9774 105.632C49.9206 104.875 52.0676 105.953 52.7741 108.041C53.481 110.131 52.4779 112.441 50.5337 113.201C50.5337 113.201 50.5358 113.2 50.5322 113.202L50.5266 113.204L50.5161 113.208L50.4854 113.22C50.4605 113.229 50.4269 113.242 50.3848 113.258C50.3006 113.289 50.1824 113.333 50.0318 113.387C49.7307 113.495 49.2999 113.645 48.753 113.822C47.66 114.177 46.0986 114.643 44.1784 115.107C40.3507 116.032 35.0316 116.966 29.1194 116.966C23.2072 116.966 17.8882 116.032 14.0605 115.107C12.1403 114.643 10.5788 114.177 9.48582 113.822C8.93892 113.645 8.50812 113.495 8.20706 113.387C8.05649 113.333 7.93827 113.289 7.85408 113.258C7.81198 113.242 7.77838 113.229 7.7535 113.22L7.72273 113.208L7.71229 113.204L7.70664 113.202C7.70459 113.201 7.70517 113.201 7.70517 113.201C5.7609 112.441 4.75785 110.131 5.46479 108.041C6.17122 105.953 8.31825 104.875 10.2614 105.632" clip-rule="evenodd" opacity=".4"/></g><defs><linearGradient id="paint0_linear" x1="110.938" x2="38.877" y1="63.119" y2="93.52" gradientUnits="userSpaceOnUse"><stop stop-color="#0F6E83"/><stop offset="1" stop-color="#14959D"/></linearGradient><linearGradient id="paint1_linear" x1="7.948" x2="69.941" y1="49.744" y2="39.93" gradientUnits="userSpaceOnUse"><stop stop-color="#045162"/><stop offset="1" stop-color="#14959D"/></linearGradient><linearGradient id="paint2_linear" x1="12.786" x2="71.469" y1="9.156" y2="6.921" gradientUnits="userSpaceOnUse"><stop stop-color="#066A81"/><stop offset="1" stop-color="#12E2EF"/></linearGradient><linearGradient id="paint3_linear" x1="81.017" x2="22.928" y1="34.782" y2="80.228" gradientUnits="userSpaceOnUse"><stop stop-color="#042635"/><stop offset="1" stop-color="#001431"/></linearGradient><linearGradient id="paint4_linear" x1="99.561" x2="99.561" y1="75.043" y2="82.012" gradientUnits="userSpaceOnUse"><stop stop-color="#fff"/><stop offset="1" stop-color="#fff" stop-opacity="0"/></linearGradient><linearGradient id="paint5_linear" x1="67.208" x2="98.732" y1="29.749" y2="68.573" gradientUnits="userSpaceOnUse"><stop stop-color="#fff"/><stop offset="1" stop-color="#fff" stop-opacity="0"/></linearGradient><linearGradient id="paint6_linear" x1="76.979" x2="69.119" y1="14.844" y2="35.989" gradientUnits="userSpaceOnUse"><stop stop-color="#042635"/><stop offset="1" stop-color="#001431"/></linearGradient><linearGradient id="paint7_linear" x1="77.252" x2="69.393" y1="15.238" y2="36.383" gradientUnits="userSpaceOnUse"><stop stop-color="#042635"/><stop offset="1" stop-color="#001431"/></linearGradient><radialGradient id="paint8_radial" cx="0" cy="0" r="1" gradientTransform="translate(104.048 86.21) rotate(-0.959364) scale(3.30845 3.53917)" gradientUnits="userSpaceOnUse"><stop stop-color="#F5FCFF"/><stop offset="1" stop-color="#fff"/></radialGradient><radialGradient id="paint9_radial" cx="0" cy="0" r="1" gradientTransform="translate(106.094 82.5635) rotate(-0.959364) scale(3.30845 3.53917)" gradientUnits="userSpaceOnUse"><stop stop-color="#F5FCFF"/><stop offset="1" stop-color="#fff"/></radialGradient><radialGradient id="paint10_radial" cx="0" cy="0" r="1" gradientTransform="translate(108.138 78.1875) rotate(-0.959364) scale(3.30845 3.53917)" gradientUnits="userSpaceOnUse"><stop stop-color="#F5FCFF"/><stop offset="1" stop-color="#fff"/></radialGradient><linearGradient id="paint11_linear" x1="41.655" x2="31.287" y1="29.763" y2="35.562" gradientUnits="userSpaceOnUse"><stop stop-color="#042635"/><stop offset="1" stop-color="#001431"/></linearGradient><linearGradient id="paint12_linear" x1="108.211" x2="108.211" y1="38.054" y2="62.281" gradientUnits="userSpaceOnUse"><stop stop-color="#fff"/><stop offset="1" stop-color="#fff"/></linearGradient><linearGradient id="paint13_linear" x1="99.878" x2="101.719" y1="37.523" y2="38.817" gradientUnits="userSpaceOnUse"><stop stop-color="#042635"/><stop offset="1" stop-color="#001431"/></linearGradient><linearGradient id="paint14_linear" x1="78.782" x2="69.061" y1="89.575" y2="118.918" gradientUnits="userSpaceOnUse"><stop stop-color="#042635"/><stop offset="1" stop-color="#001431"/></linearGradient><linearGradient id="paint15_linear" x1="94.44" x2="94.182" y1="93.406" y2="108.681" gradientUnits="userSpaceOnUse"><stop stop-color="#73DDFE"/><stop offset="1" stop-color="#A2E9FF"/></linearGradient><linearGradient id="paint16_linear" x1="74.119" x2="74.119" y1="95.212" y2="109.748" gradientUnits="userSpaceOnUse"><stop stop-color="#032134"/><stop offset="1" stop-color="#194B42"/></linearGradient><linearGradient id="paint17_linear" x1="49.27" x2="9.833" y1="85.789" y2="102.427" gradientUnits="userSpaceOnUse"><stop stop-color="#0F6E83"/><stop offset="1" stop-color="#14959D"/></linearGradient><linearGradient id="paint18_linear" x1="-7.094" x2="26.833" y1="78.469" y2="73.099" gradientUnits="userSpaceOnUse"><stop stop-color="#045162"/><stop offset="1" stop-color="#14959D"/></linearGradient><linearGradient id="paint19_linear" x1="-4.447" x2="27.669" y1="56.256" y2="55.033" gradientUnits="userSpaceOnUse"><stop stop-color="#066A81"/><stop offset="1" stop-color="#12E2EF"/></linearGradient><linearGradient id="paint20_linear" x1="32.895" x2="1.104" y1="70.28" y2="95.152" gradientUnits="userSpaceOnUse"><stop stop-color="#042635"/><stop offset="1" stop-color="#001431"/></linearGradient><linearGradient id="paint21_linear" x1="43.043" x2="43.043" y1="92.315" y2="96.129" gradientUnits="userSpaceOnUse"><stop stop-color="#fff"/><stop offset="1" stop-color="#fff" stop-opacity="0"/></linearGradient><linearGradient id="paint22_linear" x1="25.337" x2="42.589" y1="67.526" y2="88.774" gradientUnits="userSpaceOnUse"><stop stop-color="#fff"/><stop offset="1" stop-color="#fff" stop-opacity="0"/></linearGradient><linearGradient id="paint23_linear" x1="30.838" x2="26.536" y1="58.822" y2="70.394" gradientUnits="userSpaceOnUse"><stop stop-color="#042635"/><stop offset="1" stop-color="#001431"/></linearGradient><linearGradient id="paint24_linear" x1="30.987" x2="26.686" y1="59.038" y2="70.61" gradientUnits="userSpaceOnUse"><stop stop-color="#042635"/><stop offset="1" stop-color="#001431"/></linearGradient><radialGradient id="paint25_radial" cx="0" cy="0" r="1" gradientTransform="translate(45.4987 98.4263) rotate(-0.959364) scale(1.81063 1.93689)" gradientUnits="userSpaceOnUse"><stop stop-color="#F5FCFF"/><stop offset="1" stop-color="#fff"/></radialGradient><radialGradient id="paint26_radial" cx="0" cy="0" r="1" gradientTransform="translate(46.6183 96.4302) rotate(-0.959364) scale(1.81063 1.93689)" gradientUnits="userSpaceOnUse"><stop stop-color="#F5FCFF"/><stop offset="1" stop-color="#fff"/></radialGradient><radialGradient id="paint27_radial" cx="0" cy="0" r="1" gradientTransform="translate(47.7375 94.0351) rotate(-0.959364) scale(1.81063 1.93689)" gradientUnits="userSpaceOnUse"><stop stop-color="#F5FCFF"/><stop offset="1" stop-color="#fff"/></radialGradient><linearGradient id="paint28_linear" x1="11.353" x2="5.678" y1="67.534" y2="70.708" gradientUnits="userSpaceOnUse"><stop stop-color="#042635"/><stop offset="1" stop-color="#001431"/></linearGradient><linearGradient id="paint29_linear" x1="47.777" x2="47.777" y1="72.071" y2="85.33" gradientUnits="userSpaceOnUse"><stop stop-color="#fff"/><stop offset="1" stop-color="#fff"/></linearGradient><linearGradient id="paint30_linear" x1="10.927" x2="11.935" y1="71.781" y2="72.489" gradientUnits="userSpaceOnUse"><stop stop-color="#042635"/><stop offset="1" stop-color="#001431"/></linearGradient><linearGradient id="paint31_linear" x1="31.672" x2="26.352" y1="100.268" y2="116.326" gradientUnits="userSpaceOnUse"><stop stop-color="#042635"/><stop offset="1" stop-color="#001431"/></linearGradient><linearGradient id="paint32_linear" x1="40.241" x2="40.1" y1="102.365" y2="110.724" gradientUnits="userSpaceOnUse"><stop stop-color="#73DDFE"/><stop offset="1" stop-color="#A2E9FF"/></linearGradient><linearGradient id="paint33_linear" x1="29.12" x2="29.12" y1="103.353" y2="111.308" gradientUnits="userSpaceOnUse"><stop stop-color="#032134"/><stop offset="1" stop-color="#194B42"/></linearGradient></defs></svg>