<svg xmlns="http://www.w3.org/2000/svg" width="90" height="129" fill="none" viewBox="0 0 90 129"><mask id="mask0" width="57" height="107" x="16" y="0" mask-type="alpha" maskUnits="userSpaceOnUse"><path fill="url(#paint0_linear)" d="M17.3657 73.1301C14.8806 45.8943 24.877 19.0004 44.548 0C64.219 19.0004 74.2154 45.8943 71.7303 73.1301L68.6605 106.774H20.4355L17.3657 73.1301Z"/></mask><g mask="url(#mask0)"><path fill="url(#paint1_linear)" d="M17.3657 73.1301C14.8806 45.8943 24.877 19.0004 44.548 0C64.219 19.0004 74.2154 45.8943 71.7303 73.1301L68.6605 106.774H20.4355L17.3657 73.1301Z"/><path stroke="#E8FF5E" stroke-dasharray=".08 3.93" stroke-linecap="round" stroke-linejoin="round" stroke-width="1.571" d="M26.8701 98.2891H67.7832"/><path fill="url(#paint2_linear)" d="M9.36997 70.7424C7.0226 45.0163 16.4649 19.613 35.0456 1.66573C36.0076 0.736575 37.5327 0.736574 38.4947 1.66573C57.0754 19.613 66.5177 45.0163 64.1703 70.7424L60.8827 106.774H12.6576L9.36997 70.7424Z" opacity=".1"/><rect width="67.883" height="17.678" x="12.021" y="101.117" fill="url(#paint3_linear)" opacity=".65" rx="3.273"/><path fill="url(#paint4_linear)" fill-rule="evenodd" d="M44.5484 0C24.8774 19.0004 14.881 45.8943 17.3661 73.1301L20.4359 106.774H33.871L30.5834 70.7424C28.463 47.5035 35.9628 24.528 51.1285 7.07378C49.0741 4.61341 46.8792 2.2513 44.5484 0Z" clip-rule="evenodd" opacity=".3"/><circle cx="44.194" cy="49.91" r="20.575" fill="#A2E9FF"/><circle cx="44.422" cy="49.774" r="17.919" stroke="#033136" stroke-dasharray=".08 3.93" stroke-linecap="round" stroke-linejoin="round" stroke-width=".995" opacity=".2"/><circle cx="44.194" cy="49.911" r="15.203" fill="url(#paint5_linear)"/></g><path fill="url(#paint6_linear)" d="M26.7795 98.5779V70.2935C5.28332 70.2935 -7.86911 102.113 5.21261 128.277L26.7795 98.5779Z"/><path fill="url(#paint7_linear)" d="M62.9329 98.5774V70.293C84.4291 70.293 97.5815 102.113 84.4998 128.276L62.9329 98.5774Z"/><path fill="#D5F5FF" d="M77.9106 119.203L84.4996 128.276C97.2716 102.733 85.037 71.7968 64.4453 70.3462C77.7202 77.9465 84.6379 99.3211 77.9106 119.203Z" opacity=".6"/><path fill="url(#paint8_linear)" d="M34.2868 111.495C31.7401 111.495 30.169 114.275 31.4831 116.457L35.9352 123.847C36.5274 124.83 37.5912 125.431 38.7388 125.431H51.1006C52.2483 125.431 53.3121 124.83 53.9043 123.847L58.3564 116.457C59.6704 114.275 58.0994 111.495 55.5527 111.495H34.2868Z"/><rect width="36.063" height="5.657" x="26.87" y="112.49" fill="#161616" opacity=".3" rx="2.828"/><rect width="36.063" height="5.657" x="26.87" y="110.31" fill="url(#paint9_linear)" rx="2.828"/><path stroke="#fff" stroke-dasharray="1.41 3.54" stroke-width="2.828" d="M29.6982 113.138H59.7505"/><rect width="21.921" height="5.657" x="26.87" y="110.31" fill="url(#paint10_linear)" opacity=".5" rx="2.828"/><defs><linearGradient id="paint0_linear" x1="-32.881" x2="98.642" y1="51.266" y2="81.671" gradientUnits="userSpaceOnUse"><stop stop-color="#066A81"/><stop offset="1" stop-color="#12E2EF"/></linearGradient><linearGradient id="paint1_linear" x1="-32.881" x2="75.661" y1="51.266" y2="76.368" gradientUnits="userSpaceOnUse"><stop stop-color="#066A81"/><stop offset="1" stop-color="#47F4FF"/></linearGradient><linearGradient id="paint2_linear" x1="21.214" x2="35.294" y1="6.991" y2="106.117" gradientUnits="userSpaceOnUse"><stop stop-color="#066D77"/><stop offset="1" stop-color="#021215"/></linearGradient><linearGradient id="paint3_linear" x1="28.992" x2="29.352" y1="102.275" y2="119.01" gradientUnits="userSpaceOnUse"><stop stop-color="#066D77"/><stop offset="1" stop-color="#021215"/></linearGradient><linearGradient id="paint4_linear" x1="25.526" x2="50.065" y1="6.991" y2="101.763" gradientUnits="userSpaceOnUse"><stop stop-color="#066D77"/><stop offset="1" stop-color="#021215"/></linearGradient><linearGradient id="paint5_linear" x1="36.593" x2="38.96" y1="36.699" y2="65.3" gradientUnits="userSpaceOnUse"><stop stop-color="#066D77"/><stop offset="1" stop-color="#021215"/></linearGradient><linearGradient id="paint6_linear" x1="21.213" x2="13.39" y1="76.657" y2="128.277" gradientUnits="userSpaceOnUse"><stop stop-color="#48CDF7"/><stop offset="1" stop-color="#52C1E3"/></linearGradient><linearGradient id="paint7_linear" x1="62.933" x2="86.975" y1="86.203" y2="99.285" gradientUnits="userSpaceOnUse"><stop stop-color="#30EFFD"/><stop offset="1" stop-color="#A2E9FF"/></linearGradient><linearGradient id="paint8_linear" x1="36.707" x2="37.17" y1="112.407" y2="125.59" gradientUnits="userSpaceOnUse"><stop stop-color="#53D9E7"/><stop offset="1" stop-color="#33DAFF"/></linearGradient><linearGradient id="paint9_linear" x1="69.718" x2="66.153" y1="114.969" y2="127.941" gradientUnits="userSpaceOnUse"><stop stop-color="#069886"/><stop offset="1" stop-color="#12E2EF"/></linearGradient><linearGradient id="paint10_linear" x1="32.35" x2="32.465" y1="110.68" y2="116.035" gradientUnits="userSpaceOnUse"><stop stop-color="#066D77"/><stop offset="1" stop-color="#021215"/></linearGradient></defs></svg>